<svg version="1.1" xmlns="http://www.w3.org/2000/svg" viewBox="0 0 899.0345797590912 569" width="899.0345797590912" height="569">
  <!-- svg-source:excalidraw -->
  
  <defs>
    <style>
      @font-face {
        font-family: "Virgil";
        src: url("https://excalidraw.com/Virgil.woff2");
      }
      @font-face {
        font-family: "Cascadia";
        src: url("https://excalidraw.com/Cascadia.woff2");
      }
    </style>
  </defs>
  <rect x="0" y="0" width="899.0345797590912" height="569" fill="#ffffff"></rect><g stroke-linecap="round" transform="translate(267.3934326171875 10) rotate(0 121.5 274.5)"><path d="M0 0 C0 0, 0 0, 0 0 M0 0 C0 0, 0 0, 0 0 M-0.32 5.7 C1.93 4.95, 2.2 3.5, 4.93 -0.14 M-0.03 6.13 C2 4, 3.6 2.22, 4.73 0.33 M1.47 12.3 C4.18 7.28, 4.19 6.15, 10.45 0.49 M-0.12 12.27 C4.77 7.15, 8.23 2.77, 11.43 0.52 M-1.98 17.41 C6.71 11.55, 12.52 5.2, 14.47 1.93 M-0.69 18.22 C4.25 14.18, 7.37 9.77, 15.59 0.65 M1.84 23.69 C7.92 12.98, 15.33 3.88, 20.26 0.44 M-0.38 23.31 C7.29 17.71, 13.58 9.6, 20.41 0.21 M-1.41 29.87 C7.46 18.49, 19.73 7.93, 27.98 -0.94 M0.41 30.92 C4.74 25.02, 11.05 18.81, 26.51 -0.64 M1.09 36.96 C7.54 25.71, 18.21 15.19, 31.25 1.02 M-0.74 36.14 C6.58 28.49, 15 19.39, 32.23 -0.23 M-0.97 43.22 C6.58 34.89, 14.15 23.22, 35.16 0.6 M-0.01 41.74 C8.98 30.5, 18.08 19.54, 36.94 0.38 M0.16 47.27 C9.48 36.78, 20.66 24.05, 40.73 -2.1 M-0.87 48.01 C11.86 33.59, 24.66 18.95, 42.65 -0.94 M2.2 55.51 C11.44 39.3, 26.72 23.1, 46.92 1.56 M0.85 55.17 C13.02 39.41, 27.14 23, 47.15 0.21 M-1.2 60.89 C14.55 46.3, 27.98 29.07, 51.16 -0.48 M0.11 60.95 C14.26 45.32, 27.39 28.66, 53.65 0.39 M-0.58 66.42 C24.2 41.37, 46.91 13.41, 59.31 1.8 M-0.41 67.01 C14.9 51.12, 29.28 34.67, 57.87 -0.05 M-1.44 72.17 C15.59 53.37, 33.69 31.7, 62.17 -0.81 M0.15 72.79 C19.71 49.21, 41.5 24.66, 63.68 0.63 M1.1 78.25 C12.85 64.08, 26.7 47.56, 69.49 2.05 M-0.81 79.38 C21.63 54.94, 42.91 29.44, 68.24 -0.77 M2.1 84.35 C25.55 57.03, 50.11 26.19, 74.46 -0.94 M-0.34 85.92 C25.97 54.14, 54.65 23.34, 73.6 -0.8 M0.82 92.43 C16.67 70.5, 34.63 53.75, 79.74 -0.06 M-0.87 91.2 C27.28 60.67, 52.88 32.08, 79.85 0.28 M0.56 98.29 C28.13 65.41, 56.57 33.41, 85.91 -1.79 M-1.18 98.06 C27.64 68.02, 52.88 36.67, 84.72 0.09 M1.94 102.52 C32.42 63.49, 67.62 25.49, 89.5 1.96 M-0.04 103.22 C19.5 81.83, 40.16 60.77, 90.72 -0.16 M0.17 109.5 C32.22 71.5, 62.91 35.14, 95.49 0.56 M0.23 109.21 C31.4 71.42, 65.06 35.48, 94.78 -0.14 M0.92 114.93 C26.17 82.71, 53.91 52.73, 99.3 -0.54 M0.68 114.73 C33.34 79.24, 64.9 42.91, 101.33 -0.73 M-1.7 120.57 C36.65 81.33, 73.99 34.83, 107.29 -1.1 M0.93 122.23 C31.61 86.65, 61.61 50.59, 105.97 -0.39 M-1.28 129.73 C39.99 85.26, 74.3 42.84, 110.79 0.69 M0.06 128.35 C28.02 93.64, 58.36 59.01, 110.57 0.46 M2.14 134.26 C46.28 85.5, 87.71 36.93, 117.9 -0.32 M1.08 133.74 C30.4 97.41, 63.51 60.06, 116.25 -0.21 M-0.62 141.58 C32.26 103.11, 63.58 67.51, 122.79 -1.23 M-0.71 141 C41.15 92.98, 81.25 46.19, 121.79 -0.14 M-0.04 146.17 C33.79 110.43, 62.97 75.43, 126.98 -0.07 M1.27 146.97 C27.99 113.38, 56.11 79.68, 126 1.11 M-1.71 152.31 C43.93 103.09, 87.49 50.36, 131.34 -0.29 M0.01 152.42 C32.71 114.61, 66.67 75.98, 132.73 0.43 M0.44 157.7 C37.3 117.93, 74.05 77.42, 137.37 -0.1 M-0.15 158.47 C49.48 102.7, 98.57 44.12, 137.98 1.04 M-0.12 163.89 C52.38 108.28, 101.76 47.15, 144.81 -1.5 M0.87 164.21 C56.43 100.17, 112.38 35.05, 143.61 -0.06 M-0.28 172.06 C52.78 108.21, 108.6 47.33, 149.41 -0.2 M-0.32 170.93 C52.4 112.76, 102.23 53.61, 148.3 1.09 M-1.03 175.16 C47.14 120.56, 97.33 64.22, 154.42 -1.42 M-0.5 176.39 C33.27 139.15, 65.82 102.21, 153.3 0.28 M0.4 181.57 C50.62 121.02, 102.5 60.32, 157.72 0.64 M-0.11 182.29 C48.48 128.79, 95.18 73.58, 159.13 -0.52 M1.03 189.9 C46.79 138.92, 91.91 85.85, 163.2 0.34 M0.07 188.6 C33.35 149.78, 66.39 110.91, 164.44 0.32 M-0.24 195.61 C63.55 119.09, 129.51 45.53, 168.18 0.79 M0.7 195.44 C64.57 120.27, 131.61 43.87, 169.48 -0.04 M0.99 200.47 C55.8 135.08, 112.08 68.58, 174.73 -1.53 M0.51 201.94 C58.83 134.94, 116.33 68.12, 174.95 -0.47 M-0.59 207.52 C34.42 166.9, 69.63 124.97, 180.55 -0.55 M-0.43 207.11 C49.2 152.42, 97.23 97.26, 180.35 0.05 M-0.41 212.09 C37.39 169.59, 77.89 125.03, 186.85 1.22 M0.62 213.8 C73.74 128.72, 148.08 45.92, 186.36 -0.62 M0.96 218.92 C55.22 157.71, 108.56 93.6, 189.48 -0.35 M-0.07 220.13 C40.65 174.37, 78.86 129.24, 189.96 -0.5 M-1.12 226.35 C61.02 155.31, 121.66 84.71, 195.59 -1.26 M-0.35 226.05 C52.86 166.57, 104.94 106.65, 195.96 0.1 M-0.21 232.57 C76.41 141.88, 156.27 50.34, 202.71 -1.17 M-0.26 232.32 C74.59 147.8, 146.5 62.86, 201.42 -0.06 M1.44 236.73 C52.89 177.56, 104.66 114, 206.82 0.17 M0.1 237.9 C58.1 171.18, 113.73 106.96, 207.35 -0.57 M-0.72 245.17 C67.68 164.11, 135.6 86.29, 210.98 0.94 M-0.08 244.24 C70.66 164.22, 140.91 83.32, 212.14 0.4 M-1.34 249.88 C69.21 168.08, 136.33 90.83, 218.17 0.31 M-0.32 249.79 C84.48 153.01, 168.89 55.24, 217.12 -0.06 M0.98 256.48 C71.24 173.48, 143.54 90.73, 223.18 -0.72 M0.79 256.09 C82.99 159.7, 166.55 63.19, 222.86 0.4 M-1.09 262.06 C46.69 206.75, 96.04 152.35, 228.34 0.51 M-0.13 261.64 C57.39 194.35, 116.71 126.55, 227.89 0.23 M-0.8 266.88 C65.54 193.44, 129.37 119.31, 232.2 -1.05 M0.3 268.43 C49.59 212.02, 97.49 157.04, 233.21 -0.1 M0.7 275.19 C69.91 195.05, 139.89 116.08, 238.79 0.73 M0.46 274.52 C86.48 172.76, 173.37 71.82, 237.73 0.22 M-0.96 280.48 C76.53 192.26, 155.05 104.12, 244.35 0.67 M0.06 280.34 C46.96 224.3, 96.43 168.13, 243.73 1.21 M-0.86 285.92 C87.18 183.89, 175.9 82.05, 243.25 5.33 M-0.35 286.6 C66.49 210.21, 131.23 135.45, 243.08 6.52 M0.24 291.96 C53.89 229.63, 106.33 169.23, 242.81 13.12 M0.01 292.79 C93.58 186.5, 186.08 80.18, 242.96 13.02 M0.08 298.98 C66.52 222.14, 134.89 143.98, 244.4 17.8 M0.88 299.01 C87.65 197.41, 176.69 95.23, 243.89 18.45 M-0.93 303.96 C95.83 193.31, 191.51 80.92, 242.98 23.75 M-0.35 304.39 C54.32 242.44, 109.1 178.09, 243.64 24.94 M-0.54 310.43 C74.68 221.23, 152.46 130.5, 243.49 31.24 M-0.19 311.45 C77.82 221.19, 155.37 132.63, 243.23 30.95 M0.48 316.41 C77.07 230.44, 154.79 140.81, 243.7 36.74 M0.66 317.02 C68.57 237.19, 137.52 157.3, 244.04 37.06 M0.81 322.04 C54.48 261.65, 108.31 196.77, 244.06 43.04 M0.46 322.94 C58.22 255.79, 117.86 186.08, 243.56 43.05 M0.26 329.75 C68.1 248.77, 136.58 170.03, 244.49 49.44 M0.04 329.24 C85.09 231.37, 170.52 133.34, 243.93 48.56 M-1.01 335.9 C90.37 231.85, 180.5 128.18, 243.5 55.88 M0.25 335.11 C77.31 245.76, 155.66 154.72, 243.21 55.18 M-0.83 340.81 C58.64 273.36, 119.66 206.72, 242.45 60.48 M-0.63 341.93 C66.45 267.06, 131.04 192.42, 242.69 62.19 M0.07 346.51 C90.04 242.62, 181.25 136.8, 242.99 67.29 M0 346.73 C93.17 240.9, 186.22 134.26, 243.89 67.35 M0.61 354.54 C95.98 241.72, 191.39 133.26, 242.26 74.15 M-0.05 354.06 C84.05 257.11, 169.3 158.79, 243.16 73.85 M0.96 358.73 C74.79 271.41, 151.84 184.49, 244.38 80.26 M0.77 359.37 C74.85 273.51, 149.22 189.63, 243.88 79.91 M-0.65 366.38 C91.75 261.25, 180.41 157.62, 242.42 85.24 M0.2 365.96 C90.71 261.66, 179.71 159.98, 244.04 85.76 M-1.39 371.36 C69.72 293.56, 138.17 216.29, 242.21 91.71 M-0.45 372.01 C57.1 306.86, 114.83 241.29, 243.54 91.87 M1.33 378.94 C61.54 308.23, 122.38 237.37, 242.74 98.17 M0.67 377.58 C82.14 283.56, 163.12 191.97, 243.7 97.25 M0 383.92 C55.25 317.33, 113.21 251.45, 243.51 104.18 M0.51 384.17 C91.04 279.04, 182.06 174.92, 243.02 103.99 M0.88 390.44 C86.88 288.12, 175.77 186.07, 243.76 110.5 M-0.29 390.43 C80.04 297.94, 157.61 207.32, 243.26 109.24 M1.01 396.28 C93.48 292.27, 186.07 184.74, 244.18 115.67 M-0.05 396.75 C89.56 292.36, 179.36 187.73, 243.2 115.97 M-0.24 402.86 C67.73 324.75, 135.89 247.38, 243.59 123.56 M0.23 402.19 C66.27 325.2, 133.85 247.76, 243.44 122.52 M1.31 408.09 C83.43 310.48, 167.39 214.13, 243.94 128.85 M0.02 407.78 C83.4 311.68, 167.77 215.46, 243.45 128.33 M-0.08 414 C50.64 358.25, 98.86 301.05, 242.97 134.49 M-0.02 414.8 C93.71 309.47, 186 202.11, 243.51 134.73 M0.63 420.27 C54.5 359.15, 108.76 295.95, 243.2 139.56 M0.01 421.32 C61.96 348.86, 126.01 275.94, 243.4 140.68 M-0.42 426.91 C96.45 317.27, 193.1 205.53, 243.85 145.7 M-0.07 426.64 C69.84 347.68, 139.14 267.91, 243.51 146.11 M-1.13 432.06 C80.27 339.1, 162.26 244.92, 242.41 152.33 M0.24 433.35 C82.2 338.34, 164.51 243.58, 243.53 152.53 M0.76 439.5 C85.76 341.31, 172.92 241.88, 244.61 159.36 M0.76 438.14 C66.73 360.72, 135.25 281.69, 243.17 158.96 M-0.41 445.46 C65.13 371.99, 127.6 299.92, 242.21 165.02 M-0.68 444.94 C64.87 371.64, 129.86 297.21, 242.86 165.15 M0.6 451 C55.08 389.06, 107.78 325.01, 244.3 170.83 M0.28 452.07 C82.18 355.54, 164.76 260.81, 243.71 171.01 M0.32 457.36 C48.76 400.07, 98.34 343.34, 244.44 178.3 M0.48 456.72 C92.4 351.82, 183.23 246.71, 243.64 177.5 M-1.1 463.8 C91.51 356.81, 186.35 247.23, 242.04 184.11 M-0.2 463.12 C65.84 389.02, 130.39 315.04, 243.5 183.55 M-0.71 470.1 C56.35 405.54, 110.71 343.53, 242.42 190.17 M-0.17 469.68 C64.65 397.25, 127.26 325.35, 244.1 189.35 M-0.9 475.73 C69.67 396.71, 138.19 318.53, 244.5 196.57 M0.11 475.99 C81.7 380.88, 162.8 287.73, 243.18 195.94 M-0.34 482.39 C58.51 415.35, 118.36 349.8, 244.94 201.63 M-0.75 482.24 C88.96 381.27, 177.07 278.83, 244 200.85 M1.08 486.87 C89.5 383.95, 181.46 277.93, 242.32 208.4 M0.52 487.58 C65.37 411.29, 132.28 334.7, 242.88 207.7 M-0.12 493.66 C92.62 386.53, 185.66 281.39, 243.63 214.95 M0.38 494.57 C97.86 381.85, 195.88 270.58, 242.69 214.45 M0.48 500.28 C97.22 390.77, 191.78 280.42, 244.71 219.54 M0.58 500.04 C64.48 425.22, 128.69 352.28, 243.69 219.17 M-0.39 506.18 C59.89 438.92, 118.63 370.07, 242.57 225.79 M-0.49 505.76 C77.36 415.55, 155.57 325.49, 243.02 225.76 M0.35 512.94 C70.62 430.55, 143.21 348.76, 244.37 232.94 M-0.54 512.96 C84.85 416.37, 169.04 319.35, 243.24 232.27 M-0.18 517.05 C63.69 444.5, 125.28 371.66, 244.59 237.49 M-0.03 518.19 C88.55 419.28, 174.41 319.4, 243.63 237.94 M-0.96 525.03 C68.85 445.85, 137.48 367.51, 243.84 245.49 M-0.22 523.99 C52.65 462.73, 104.87 402.53, 243.74 245.09 M-0.28 531.3 C75.8 442.17, 151.72 354.56, 244.03 250.75 M0.45 529.66 C91.44 424.75, 182.4 321.36, 244.13 250.04 M0.99 537.07 C51.48 481.4, 100.96 424.33, 243.44 257.23 M0.04 537.09 C56.14 473.73, 110.91 410.88, 243.44 256.27 M-1.41 542.96 C74 453.5, 151.09 364.79, 243.31 261.88 M-0.75 542.77 C72.77 460.59, 145.29 376.48, 243.15 262.69 M-0.31 549.35 C90.12 448.73, 176.88 347.79, 244.63 268.56 M-0.38 548.43 C92.28 441.63, 186.01 334.81, 243.85 268.28 M4.07 550.37 C59.91 486.56, 116.75 419.5, 242.39 275.85 M2.64 550.71 C80.89 463.63, 158.33 374.57, 242.62 275.15 M7 551.2 C73.43 475.17, 139.38 398.88, 242.86 279.65 M8.55 551.62 C90.75 455.57, 174.27 359.58, 243.69 280.75 M13.31 551.54 C79.52 473.59, 146.18 396.3, 243.98 285.99 M13.42 551.03 C78.91 473.53, 145.62 396.68, 243.02 287.25 M17.49 552.59 C98.18 459.21, 178.55 365.67, 244.19 293.84 M19.03 552.04 C76.66 484.7, 135.14 416.49, 243.14 292.35 M23.57 552.1 C94.3 469.89, 165.85 390.29, 244.5 298.5 M24.13 551.23 C88.8 476.91, 152.74 402.24, 243.14 298.9 M29.15 550.75 C73.48 500.32, 116.93 451.54, 242.07 305.45 M29.92 551.01 C88.07 482.49, 146.42 414.83, 243.43 305.46 M35.23 552.36 C85.91 495.48, 132.72 440.44, 244.08 311.93 M34.82 550.76 C98.55 478.54, 160.51 407.88, 244.01 310.94 M40.63 550.99 C101.63 484.53, 160.08 414.87, 243.18 317.49 M40.4 551.21 C87.57 497.3, 135.04 441.87, 242.66 317.99 M45.96 551.17 C118.14 468.11, 186.59 387.93, 243.75 322.24 M45.17 551.6 C103.54 482.82, 163.64 413.08, 244.23 323.29 M51.18 551.23 C115.72 478.22, 178.12 404.98, 242.05 330.74 M51.3 551.75 C93.89 502.7, 137.34 452.51, 244.18 328.92 M55.97 551.53 C109.54 489.57, 162.55 427.49, 241.86 335.33 M55.73 552.59 C129.65 467.83, 202.12 384.63, 243.38 335.52 M60.83 552.83 C111.96 493.7, 164.24 431.82, 243.2 342.75 M60.89 552 C134.32 468.56, 207.74 384.58, 243.73 341.29 M67.38 550.69 C109.21 502.09, 150.07 453.09, 242.59 346.87 M66.87 552.16 C111.99 496.94, 159.86 442.18, 243.38 348.37 M70.52 551.62 C129.93 484.3, 189.69 416.82, 243.2 354.63 M72.26 551.7 C132.41 483.04, 192.83 413.14, 243.12 354.27 M77.78 551.79 C127.59 492.77, 175.39 436.78, 243 361.58 M76.87 551.38 C131.73 488.49, 185.25 426.74, 243.01 360.7 M82.24 550.18 C140.33 485.7, 196.57 418.33, 241.66 365.82 M82.75 551.01 C139.02 489.08, 193.39 425.85, 242.51 366.44 M88.73 552.47 C147.62 487.83, 204.11 420.57, 244.76 371.28 M87.5 551.93 C148.51 480.46, 210.89 408.36, 243.66 372.54 M92.4 552.23 C124.42 513.12, 154.94 477.07, 244.57 377.48 M93.1 550.6 C136.13 500.34, 179.58 450.75, 242.8 377.72 M99.5 550.77 C130.07 515.17, 160.32 480.21, 243.83 384.76 M97.67 551.02 C152.12 487.09, 208.24 424.23, 243.84 384.4 M104.96 552.15 C135.94 516.29, 166.9 479.37, 243.5 390.66 M104.5 551.73 C155.1 494.08, 204.63 436.49, 243.24 390.98 M110.29 552.43 C142.49 516.5, 171.71 476.77, 243.11 395.66 M108.35 551.32 C138.21 516.37, 166.27 483.17, 243.38 396.32 M114.51 551.69 C165.96 489.36, 215.25 431.38, 245.33 402.86 M115.19 550.84 C163.6 493.62, 211.56 436.93, 244.16 401.81 M118.6 549.86 C156.31 510.31, 191.25 471.41, 241.47 410.06 M119.16 550.84 C157.69 506.83, 197.52 461.15, 242.63 408.31 M123.35 549.66 C163.55 506.11, 204.23 462.53, 243.26 415.76 M125.13 552.16 C152.31 519.67, 181.22 485.28, 244.34 415.44 M130.56 551.06 C158.07 519.21, 183.65 487.65, 244.86 422.64 M130.17 551.87 C169.15 508.1, 207.34 465.16, 244.36 421.72 M135.7 550.03 C164.81 517.47, 194.11 481.08, 242.73 428.95 M135.13 550.81 C165.72 519.07, 195.91 484.71, 242.25 426.79 M141.96 553.41 C167.09 523.68, 191.12 490.9, 244.92 431.48 M139.77 551.24 C182.03 504.8, 222.75 458.42, 244.48 433.36 M144.71 549.55 C184.09 510.73, 217.79 469.27, 244.29 440.59 M146.35 550.45 C173.3 518.65, 200.14 489.28, 242.83 439.04 M149.53 551.12 C178.18 523.45, 203.58 493.3, 242.44 443.69 M150.82 552.39 C175.7 522.52, 202.09 491.43, 243.35 444.71 M156.68 549.82 C186.64 518.02, 215.19 483.47, 243.63 452 M156.37 551.28 C182.32 520.09, 208.61 490.94, 243.48 452.18 M163.12 551.21 C192.65 519.62, 221.8 483.42, 242.69 456.02 M162.63 551.29 C194.33 513.77, 227.53 477.01, 243.07 458.53 M166.36 550.1 C195.73 520.92, 225 486.03, 242.24 464.59 M166.57 552.84 C187.67 528.39, 206.86 505.68, 242.7 464 M173.72 549.63 C195.55 523.24, 222.86 492.82, 242.01 471.83 M172.95 550.5 C191.34 530.92, 207.84 509.31, 244.17 469.89 M175.62 552.24 C198.29 526.83, 221.32 506.22, 242.7 476.68 M176.71 550.93 C198.91 527.55, 219.25 503.3, 243.42 474.88 M181.42 551.17 C205.92 525.48, 225.68 502.44, 243.93 481.62 M183.96 551.14 C207.17 525.94, 229.65 498.4, 243.66 482.71 M189.45 553.23 C199.62 536.17, 213.52 518.28, 244.1 488.19 M189.05 552.22 C205.08 534.28, 220.01 515.76, 242.35 488.5 M195.46 549.51 C208.49 530.62, 226.7 512.32, 241.72 495.99 M194.27 550.89 C212.32 529.27, 232 509.02, 243.61 494.67 M198.65 550.19 C214.68 536.86, 227.46 521.29, 244.61 501.67 M198.93 551.16 C208.94 539.54, 220.55 526.89, 242.61 500.83 M206.18 551.22 C213.8 536.5, 227.83 523.79, 241.8 506.43 M204.96 551.97 C217.16 537.04, 228.59 523.51, 244.56 506.07 M211.15 553.11 C219.06 543.71, 227.65 533.89, 241.53 510.8 M210.11 550.77 C221.42 539.2, 232.54 525.65, 243.79 512.68 M213.08 551.7 C223.22 542.46, 227.11 534.23, 243.07 518.08 M215.51 551.19 C222.39 542.26, 230.58 534.14, 242.8 518.47 M219.96 552.86 C227.13 542.54, 233.84 538.25, 241.99 525.38 M220.82 552.64 C228.06 542.53, 236.7 533.98, 244.58 524.67 M224.74 551.27 C230.47 544.24, 234.48 537.95, 243.49 530.65 M225.85 551.92 C230.85 546.86, 234.52 541.85, 243.07 531.78 M231.25 553.1 C234.13 546.88, 236.88 544.02, 241.62 536.87 M229.75 550.94 C234.33 546.96, 237.72 542.15, 243.42 536.75 M235.53 551.17 C239.09 547.43, 241.08 544.72, 243.9 542.99 M236.34 551.71 C238.13 549.64, 239.36 547.31, 244.08 542.81" stroke="#228be6" stroke-width="0.5" fill="none"></path><path d="M0.94 0.49 C65.88 -1.64, 133.45 -1.51, 243.19 -0.65 M-0.61 -0.56 C70.63 0.68, 142.8 0.71, 242.78 0.81 M243.17 -0.14 C243.73 110.89, 244.79 223.23, 242.97 548.96 M242.96 0.03 C244.53 119.36, 244.34 239.07, 242.99 548.64 M244.6 548.37 C146.53 548.21, 48.03 548.97, 0.77 550.13 M242.69 548.7 C157.6 551.23, 70.43 550.65, -0.21 548.48 M-0.36 549.39 C0.31 418.22, 1.41 288.16, 0.02 0.39 M-0.04 548.88 C0.97 332.56, 0.84 117.14, -0.39 0.18" stroke="#000000" stroke-width="1" fill="none"></path></g><g transform="translate(272.3934326171875 275) rotate(0 116.5 9.5)"><text x="116.5" y="15" font-family="Cascadia, Segoe UI Emoji" font-size="16px" fill="#000000" text-anchor="middle" style="white-space: pre;" direction="ltr">MetricDecoratorGenerator</text></g><g stroke-linecap="round" transform="translate(10 207.36669921875) rotate(0 64.021240234375 26.636856079101562)"><path d="M0 0 C0 0, 0 0, 0 0 M0 0 C0 0, 0 0, 0 0 M-0.09 5.66 C1.99 4.46, 3.3 1.5, 4.59 0.19 M0.06 6.05 C1.39 4.19, 3.43 2.27, 4.68 0.61 M-0.85 13.57 C2.8 7.35, 6.49 3.57, 9.88 -0.16 M0.2 11.32 C4 8.14, 6.86 3.04, 9.95 0.61 M0.58 19.5 C6.11 13.81, 9.6 5.33, 14.29 0.31 M-0.65 18.84 C2.95 15.04, 6.18 9.89, 14.85 1.19 M1.75 25.09 C6.23 19.11, 10.86 8.35, 23.02 0.92 M0.4 23.34 C6.78 15.95, 11.84 10.69, 22.07 -0.83 M1.3 29.43 C4.4 23.27, 10.8 15.3, 24.29 0.96 M0 29.72 C9.86 18.55, 20.18 7.31, 26.81 0.44 M-1.1 36.8 C8.7 27.27, 15.54 16.79, 32.86 1.72 M-0.4 37.09 C8.41 26.67, 16.95 18.63, 32.53 0.45 M-1.07 43.48 C14.3 25.26, 27.44 9.55, 38.44 0.65 M-0.4 41.8 C13.75 26.26, 28.84 9.61, 37.54 -0.68 M-1.63 48.1 C9.58 39.37, 19.43 25.33, 40.78 1.39 M-0.58 48.61 C13.99 31.15, 29.37 14.24, 42.31 0.75 M1.93 53.8 C17.77 32.18, 37.13 11.08, 46.37 -0.02 M0.82 53.6 C9.82 42.29, 19.46 31.64, 48.36 1 M5.3 55.29 C23.15 34.05, 43.52 13.43, 51.51 -1.08 M5.33 54.14 C21.7 38.33, 35.02 20.11, 53.46 -0.23 M10.48 54.58 C20.19 42.59, 30.3 31.15, 58.94 1.34 M11.77 53.37 C27.63 35.3, 43.5 16.93, 58.53 -0.77 M15.48 56.02 C34.54 34.19, 50.48 13.42, 64.98 1.11 M16.15 54.08 C33.74 34.07, 52.72 13.88, 62.91 -1.17 M20.92 53.69 C31.31 40.95, 40.28 32.08, 68.16 0.96 M22.42 52.87 C32.77 40.93, 44.6 27.97, 69.2 0.37 M26.58 53.54 C41.69 38.23, 53.59 23.88, 76.31 -1.41 M27.29 53.18 C45.81 33.29, 64.21 10.86, 74.53 -1.18 M34.61 55.5 C47.72 37.85, 62.46 18.53, 79.24 0.84 M33.51 54.13 C48.64 33.93, 66.04 14.42, 79.43 -0.63 M38.06 55.63 C53.84 35.49, 66.59 20.57, 83.81 -2.22 M38.7 53.54 C51.98 37.17, 65.82 20.22, 85.08 0.25 M44.1 52.19 C58.22 37.69, 68.67 22.21, 90.58 0.83 M42.68 52.78 C56.35 40.32, 68.66 25.23, 90.18 -0.23 M46.57 55.86 C59.52 41.89, 68.49 27.51, 96.95 0.92 M48.23 53.8 C60.98 39.4, 75.81 22.53, 96.23 -0.8 M53.15 51.76 C66.64 41.98, 73.99 29, 101.76 -1.41 M54.46 54.01 C68.2 38.78, 80.88 22.31, 100.33 -0.28 M57.94 53.65 C68.79 44.41, 76.98 31.14, 104.43 -1.92 M59.61 53.24 C77.49 32.28, 96.73 11.64, 106.55 -0.65 M64.66 54.01 C78.35 38.39, 92.57 21.45, 109.56 1.56 M64.32 52.65 C81.16 34.86, 98.21 15.09, 110.66 -0.07 M71.2 54.21 C85.74 38.19, 100.41 18.24, 117.45 -0.12 M70.49 53.7 C85.03 36.65, 100.67 17.66, 116.86 0.74 M76.12 55.32 C92.33 36.38, 108.67 16.82, 119.94 -0.98 M73.94 53.84 C89.63 37.25, 104.98 19.04, 121.84 -0.27 M78.56 52.55 C96.91 34.38, 113.59 13.72, 128.37 -1.52 M80.45 53.65 C93.2 39.25, 105.2 23.88, 126.88 0.72 M86.13 53.6 C101.66 38.83, 116.85 17.94, 130.07 0.34 M85.9 54.08 C103.49 33.68, 121.32 13.98, 130.51 1.31 M89.41 53.51 C108.4 34.79, 123.18 19.27, 131.58 8.44 M90.93 54.11 C99.96 43.29, 110.1 31.52, 130 8.83 M94.53 52.85 C107.71 41.57, 118.26 28.92, 129.73 13.94 M95.72 53.71 C108.81 38.66, 120.98 24.39, 130.59 14.72 M102.33 55.75 C113.48 41.15, 124.61 26.95, 132.42 22.53 M101.32 54.73 C110.02 43.4, 119.31 33.25, 130.39 20.58 M104.99 56.13 C114.73 42.83, 125.43 35.5, 128.97 24.74 M106.47 53.91 C117.04 42.94, 125.85 32.89, 131.02 27.26 M113.11 55.73 C117.43 46.28, 126.98 37.78, 130.8 34.1 M112.9 53.73 C116.45 48.99, 121.2 43.96, 130.41 31.85 M116.38 54.31 C123.39 48.11, 127.69 43.71, 129.85 38.01 M118.13 53.45 C121.72 48.5, 126.79 44.35, 129.45 39.37 M122.76 54.94 C124.57 50.43, 127.77 47.18, 130.6 44.34 M122.84 53.88 C125.06 52.28, 127.19 49.42, 130.34 44.23" stroke="#fa5252" stroke-width="0.5" fill="none"></path><path d="M-0.92 1.48 C51.62 -0.92, 101.63 2.32, 126.4 -0.12 M-0.63 -0.54 C46.84 0.17, 92.09 0.51, 127.54 -0.43 M126.25 -0.13 C127.94 16.91, 129.22 31.66, 126.84 54.84 M127.16 0.63 C127.62 15.37, 126.83 31.58, 127.04 53.28 M129.35 51.41 C90.79 50.93, 56.07 53.47, 0.94 52.21 M127.28 52.69 C84.69 51.67, 39.98 52.68, 0.37 53.39 M-1 54.19 C0.92 37.67, -0.39 25.31, -0.27 -1.5 M-0.22 52.64 C0.11 34.89, -0.31 17.18, -0.97 -0.53" stroke="#000000" stroke-width="1" fill="none"></path></g><g transform="translate(15 215.00355529785156) rotate(0 59 19)"><text x="59" y="15" font-family="Cascadia, Segoe UI Emoji" font-size="16px" fill="#000000" text-anchor="middle" style="white-space: pre;" direction="ltr">StatsD </text><text x="59" y="34" font-family="Cascadia, Segoe UI Emoji" font-size="16px" fill="#000000" text-anchor="middle" style="white-space: pre;" direction="ltr">client</text></g><g stroke-linecap="round"><g transform="translate(141.2774658203125 234.21844482421875) rotate(0 64.28732251047626 -2.006639770935294)"><path d="M-1.16 -0.33 C20.06 -0.81, 105.84 -1.77, 127.56 -2.07 M0.43 -1.54 C21.99 -2.42, 108.36 -3.27, 129.74 -3.69" stroke="#000000" stroke-width="1" fill="none"></path></g><g transform="translate(141.2774658203125 234.21844482421875) rotate(0 64.28732251047626 -2.006639770935294)"><path d="M101.15 5.29 C112.16 4.81, 120.91 -0.52, 130.45 -2.63 M101.4 6.32 C111.28 2.82, 121.88 -0.29, 129.22 -3.28" stroke="#000000" stroke-width="1" fill="none"></path></g><g transform="translate(141.2774658203125 234.21844482421875) rotate(0 64.28732251047626 -2.006639770935294)"><path d="M100.86 -15.23 C112.1 -9.18, 120.94 -7.99, 130.45 -2.63 M101.11 -14.2 C111.24 -10.62, 121.95 -6.66, 129.22 -3.28" stroke="#000000" stroke-width="1" fill="none"></path></g></g><g stroke-linecap="round" transform="translate(610.5875244140625 16.593612670898438) rotate(0 99 17.440200805664062)"><path d="M0 0 C0 0, 0 0, 0 0 M0 0 C0 0, 0 0, 0 0 M-0.18 6.74 C2.18 3.79, 3.23 2.2, 5.46 0.12 M-0.43 6.43 C0.87 4.96, 1.77 3.81, 5.06 0.69 M1.5 12.81 C3.86 7.53, 6.05 5.8, 11.17 -0.9 M-0.26 12.53 C2.99 7.91, 7.05 4.84, 11.09 0.1 M0.72 19.72 C4.05 14.91, 5.79 8.17, 16.01 1.19 M-0.05 19.12 C6.27 11.52, 11.84 4.56, 16.19 0.36 M0.24 24.05 C8.5 13.46, 17.97 3.93, 20.73 0.73 M0.61 24.26 C6.96 15.41, 14.46 8.13, 21.61 0.51 M1.48 32.29 C8.15 21.14, 12.92 13.11, 28.21 -1.68 M-0.36 30.38 C5.75 24.02, 12.74 14.69, 27.16 -0.39 M2.78 33.69 C9.2 28.15, 16.18 19.62, 30.67 -0.4 M0.59 35.89 C12.96 21.51, 23.98 8.79, 32.03 -0.04 M6.93 35.63 C16.37 24.77, 24.4 13.67, 38.37 1.25 M6.08 35.2 C15.1 24.8, 25.62 13.78, 37.69 0.1 M12.52 35.24 C21.11 23.52, 30.74 17.12, 42.82 1.01 M11.23 35.25 C19.93 25.6, 28.54 15.64, 43.27 -0.29 M15.69 34.52 C23.77 30.25, 27.46 19.6, 49.3 -0.09 M17.64 35.4 C27.67 24.09, 38.16 12.28, 48.29 0.58 M20.66 35.69 C31.44 25.3, 39.04 17.25, 52.07 0.31 M22.08 35.55 C29.36 27.36, 36.5 17.7, 54.04 -0.47 M28.34 35.35 C34.28 29.2, 40.19 19.36, 58.97 0.06 M27.32 35.19 C38.1 24.32, 47.14 11.96, 58.37 -0.63 M31.46 34.55 C41.72 23.2, 51.05 13.3, 62.53 -1.37 M33.44 36.24 C41.16 26.62, 46.91 17.6, 62.97 -0.19 M39.2 36.99 C49.03 25.69, 57.17 12.17, 68.59 -0.75 M38.62 36.08 C50.34 22.33, 62.4 9.22, 68.25 0.42 M43.67 35.86 C51.51 25.7, 58.49 18.57, 75.45 -1.04 M43.84 35.14 C49.3 29.57, 54.74 22.57, 74.59 -0.46 M47.8 36.17 C60.4 20.69, 74.86 8.06, 78.5 -1.17 M48.94 36.17 C60.48 21.52, 72.54 6.97, 79.18 -0.74 M53.24 37.23 C61.36 28.51, 65.43 21.4, 85.3 -1.96 M52.72 35.39 C60.3 27.43, 67.07 20.67, 85.33 0.29 M58.85 35.42 C70.89 23.84, 80.64 8.51, 88.26 0.01 M59.59 36.17 C71.15 22.4, 81.53 8.2, 89.29 0.99 M65.31 34.37 C71.16 25.9, 81.59 14.35, 95.72 -1.51 M64.42 35.99 C73.7 24.17, 84.16 12.66, 95.53 0.22 M70.24 35.06 C81.15 24.15, 88.81 13.16, 100.62 -0.24 M69.79 35.36 C82.08 22.36, 93.33 9.61, 101.61 0.34 M72.86 33.99 C84.35 27.47, 91.45 15.13, 107.56 0.69 M74.86 36.78 C86.08 23.18, 96.57 10.6, 105.44 0.1 M81.06 37.25 C89.92 21.11, 100.61 10.91, 109.5 -1.11 M80.65 35.64 C89.16 25.5, 98.63 14.59, 112.11 -0.38 M84.08 34.67 C94.44 25.67, 101.37 15.6, 118.17 -0.39 M84.86 35.19 C91.91 27.79, 98.67 19.89, 116.55 0.04 M91.59 33.95 C101.05 24.43, 110.78 13.84, 120.02 -1.97 M91.2 35.47 C100.39 23.8, 111.31 12.27, 121.63 0.73 M94.33 34.77 C105.58 24.08, 118.58 8.48, 128.08 1.76 M96.17 36.25 C104.94 24.37, 114.74 14.5, 126.24 0.47 M103.27 34.93 C111.39 24.08, 118.06 14, 132.48 1.6 M102.38 35.94 C111 26.44, 118.93 16, 131.94 -0.85 M106.18 36.47 C118.46 26, 125.85 12.28, 137.03 1.74 M107.41 36.58 C115.53 26.46, 122.32 18.1, 137.81 0.7 M110.77 35.78 C121.02 22.41, 131.06 13.69, 142.38 1.85 M113.03 34.72 C119.67 26.34, 127.51 18.71, 143.71 -0.01 M117.35 33.77 C122.95 26.55, 131.18 20.34, 146.61 -0.8 M118.12 36.39 C127.48 23.32, 136.8 12.93, 149.13 -0.15 M121.91 33.91 C133.31 22.69, 140.25 14.02, 152.39 -1.18 M123.9 36.05 C134.76 22.81, 145.6 8.61, 154.5 -0.07 M128.78 36.46 C134.33 29.44, 143.9 21.86, 159.58 -0.4 M128.77 35.5 C137.78 23.45, 148.19 13.15, 157.99 -0.33 M133.72 36.51 C138.41 26.99, 147.75 21.68, 164.38 0.4 M133.63 34.81 C143.27 26.05, 150.68 14.96, 164.81 -0.77 M140.58 34.17 C151.15 20.91, 164.07 9.97, 167.91 -1.78 M138.7 35.3 C143.99 27.51, 151.02 20.39, 170.07 0.46 M144.4 36.62 C154.81 23.51, 166.94 13.17, 175.4 -1.74 M144.79 34.43 C151.7 27.21, 157.1 19.59, 176.03 -0.22 M148.06 36.33 C156.99 25.08, 166.24 12.21, 180.75 0.13 M150.17 34.79 C158.99 24.42, 167.15 14.82, 180.95 1.16 M153.36 37.08 C161.72 26.08, 168.04 17.82, 185.7 -0.11 M155.85 34.97 C165.61 24.92, 174.91 11.79, 186.43 -0.96 M161.71 36.18 C168.8 23.56, 180.67 11.56, 192.43 0.24 M160.36 36.56 C168.26 26.26, 176.35 17.49, 190.14 -0.73 M164.52 35.28 C176.76 20.65, 189.4 7.13, 194.7 0.6 M164.5 35.8 C177.56 22.69, 187.92 8.52, 197.23 0.06 M171.2 34.78 C181.29 26.23, 190.15 11.39, 201.15 0.78 M171.34 34.79 C181.44 23.61, 192.3 11.63, 199.73 2.41 M176.98 36.18 C183.68 26.46, 190.42 19.75, 197.8 7.81 M176.36 36.66 C181.93 30.78, 186.11 23.28, 199.3 7.8 M181.41 36.99 C187.37 25.8, 194.94 17.27, 199.77 13.31 M182.09 35.26 C188.6 26.49, 195.83 19.67, 199.15 14.32 M185.02 36.82 C189.4 30.37, 193.83 25.75, 200.74 19.92 M186.94 36.12 C191.32 30.61, 196.04 23.1, 199.61 19.97 M192.13 35.5 C193.89 32.71, 195.71 30.56, 199.06 27.6 M192.2 35.41 C194.15 33.05, 196.57 29.9, 199.93 26.48 M196.75 35.71 C197.05 34.89, 198.08 34.52, 199.96 32.04 M196.63 36.05 C198.2 34.35, 199.39 32.76, 199.84 32.23" stroke="#12b886" stroke-width="0.5" fill="none"></path><path d="M0.99 -1.39 C49.33 -0.48, 100.18 -3.5, 198 -0.65 M-0.17 -0.23 C74.34 0.16, 149.71 1.57, 197.83 0.4 M199.8 -0.48 C197.18 12.24, 198.67 26.8, 197.22 33 M198.24 0.77 C198.12 11.12, 197.89 22.6, 197.33 34.92 M198.11 35.5 C132.01 35.59, 71.12 37.93, -0.32 36.07 M197.46 35.58 C143.09 33.68, 86.96 33.94, -0.64 35.68 M2 35.76 C-1.48 25.74, 1.27 14.04, -0.14 -0.69 M0.3 35.84 C-0.81 23.76, -0.46 11.91, -0.98 0.15" stroke="#000000" stroke-width="1" fill="none"></path></g><g transform="translate(615.5875244140625 24.5338134765625) rotate(0 94 9.5)"><text x="94" y="15" font-family="Cascadia, Segoe UI Emoji" font-size="16px" fill="#000000" text-anchor="middle" style="white-space: pre;" direction="ltr">@IncrementAfter</text></g><g stroke-linecap="round" transform="translate(609.8077392578125 67.07431030273438) rotate(0 99 17.440200805664062)"><path d="M0 0 C0 0, 0 0, 0 0 M0 0 C0 0, 0 0, 0 0 M0.04 6.45 C0.71 4.84, 2.33 3.29, 4.45 0.79 M-0.01 6.13 C0.82 5.01, 2.23 4.09, 4.95 0.22 M1.32 10.73 C3.05 8.48, 4.94 4.77, 11.31 0.55 M-0.66 12.09 C4.69 7.31, 7.73 3.42, 9.98 -0.27 M-1.19 19.92 C3.13 13.17, 8.06 6, 15.65 -0.06 M-0.47 18.05 C5.05 12.15, 9.88 7.36, 14.92 0.88 M2.13 22.64 C4.54 18.77, 8.05 12.25, 22.15 -1.03 M0.4 24.31 C4.78 19.44, 11.09 13.03, 21.64 0.19 M1.21 31.61 C5.83 25.35, 12.06 16.23, 25.4 0.24 M0.2 30.6 C5.77 23.66, 13.2 16.87, 25.55 -0.4 M1.05 34.72 C13.73 24.93, 22.01 10.27, 31.43 -1.09 M0.89 35.77 C8.3 28.03, 13.34 21.11, 31.65 -0.57 M5.26 33.85 C14.54 24.83, 20.22 17.61, 38.42 1.04 M5.37 35.77 C14.46 25.42, 23.37 16.94, 37.19 -0.7 M11.36 36.52 C18.63 26.06, 26.07 16.73, 43.93 1.64 M11.05 36.13 C18.22 27.02, 24.47 20.48, 42.96 -0.96 M16.53 35.01 C27.06 25.08, 37.41 13.29, 49.42 -1.13 M15.7 35.85 C26.32 23.91, 36.31 13.27, 48.14 -0.34 M24.17 33.65 C28.39 27.77, 36.52 16.71, 51.46 0.09 M22.23 35.55 C31.97 25.3, 39.95 15.36, 53.58 0.26 M28.47 35.06 C34.42 24.86, 42.7 15.04, 58.3 0.07 M27.48 36.49 C34.73 27.48, 43.23 18.61, 58.62 0.99 M33.62 34.19 C39.17 29.8, 44.63 20.09, 65.01 -0.99 M33.52 35.44 C39.99 27, 48.66 17.84, 64.42 -0.06 M38.33 36.49 C50.89 21.58, 59.41 10.51, 70.13 0.78 M38.5 35.66 C47.58 24.69, 54.87 15.44, 68.75 0.16 M42.39 36.79 C50.44 28.47, 56.1 20.87, 74.76 -1.05 M43.27 36.56 C50.29 27.33, 58.14 18.72, 75.31 0.51 M50.53 33.62 C54.33 29.32, 61.71 19.65, 79.2 -1.03 M49.48 34.91 C59.98 21.08, 72.77 8.7, 78.56 0.66 M52.33 35.65 C65.15 24.09, 74.35 11.36, 86.08 0.28 M53.69 36.02 C61.85 25.87, 69.14 17.71, 84.99 -0.01 M60.69 36.55 C68.68 24.87, 76.18 15.08, 88.97 -1.58 M60.01 35.4 C68.86 24.47, 79.86 13.2, 89.98 0.56 M64.48 37.07 C70.18 27.16, 79.37 18.83, 95.51 -0.83 M64.93 35.76 C73.34 23.49, 85.43 12.13, 95.09 0 M71.61 35.21 C83.34 21.43, 94.1 9.43, 100.07 0.7 M70.6 35.88 C80.36 23.14, 92.5 9.33, 100.86 0.52 M73.73 36.36 C82.76 26.38, 93.11 13.89, 106.81 -0.37 M75.7 35.58 C84.81 23.32, 96.52 11.83, 106.14 -0.23 M81.29 35.36 C92.41 24.81, 101.17 10.28, 110.35 1.23 M80.68 34.67 C91.64 22.77, 103.56 9.54, 110.93 -0.18 M84.19 34.69 C91.52 27.52, 100.41 20.12, 118.23 2.21 M84.63 35.87 C94.53 25.63, 102.9 16.86, 116.96 0.85 M90.9 34.54 C104.42 21.74, 115.54 10.27, 122.83 1.2 M90.57 35.72 C100.62 23.18, 110.51 11.75, 121.85 0.31 M97.11 35.01 C101.05 29.3, 108.04 21.66, 125.22 1.03 M96.25 35.6 C108.08 22.47, 117.97 10.08, 127.2 0.13 M100.81 34.13 C110.84 27, 115.7 18.63, 133.71 -0.35 M101.5 34.55 C109.44 25.92, 118.81 16.04, 133.19 0.42 M106.96 34.1 C115.3 24.07, 128.07 10.98, 136.42 0.26 M106.99 36.34 C114.94 26.77, 120.72 18.2, 137.47 0.37 M110.57 35.31 C125.19 24.56, 134.37 10.82, 144.41 1.41 M111.6 36.29 C121.54 25.42, 131.15 14.74, 142.4 -0.79 M117.38 34.54 C126.75 26.81, 133.81 15.86, 148.32 -0.85 M117.19 36.28 C126.44 25.72, 135.54 15.53, 147.93 1.16 M122.93 35.06 C133.42 24.04, 141.77 14.64, 153.49 1.13 M123.93 35.64 C132.31 24.29, 141.75 11.88, 152.86 0.32 M129.22 36.74 C140.51 21.09, 152.28 9.27, 160.59 0.76 M127.1 36.16 C137.15 26, 146.36 16.05, 159.68 -0.33 M131.81 34.19 C140.24 28.86, 147.08 20.75, 164.74 -0.72 M134.42 34.92 C144.7 23.14, 156.28 8.84, 163.85 -0.04 M140.49 34.9 C147.15 26.21, 158.28 12.02, 168.11 -0.05 M138.87 35.34 C147.6 26.19, 156.1 15.46, 168.67 0.69 M142.33 33.33 C152.91 24.31, 159.77 16.03, 175.11 -1.88 M143.94 36.02 C152.77 26.29, 159.1 16.26, 174.55 -1.03 M150.4 37.06 C159.71 23.92, 170.2 11.95, 180.93 -0.6 M148.55 35.77 C155.88 28.2, 161.89 20.77, 179.81 0.58 M154.8 36.9 C161.91 27.73, 169.84 19.92, 186.75 1.75 M154.25 34.45 C166.45 22.63, 176.74 8.49, 186.05 0.77 M159.35 37.04 C170.45 20.96, 182.13 10.84, 192.29 1.62 M160.12 36 C168.08 25.85, 175.87 16.67, 190.89 -0.69 M164.04 37.9 C171.37 28.71, 179.22 20.07, 194.99 0.06 M165.37 36.05 C171.21 27.09, 180.44 18.55, 195.34 -0.64 M168.93 34.5 C177.18 29.93, 184.02 22.56, 201.3 2.41 M171.45 35.15 C177.37 27.09, 183.43 19.46, 199.28 1.95 M174.05 34.88 C182.03 31.63, 184 26.58, 201.15 9.07 M176.16 35.98 C183.13 26, 191.78 17.19, 200.12 7.65 M181.9 34.9 C188.52 25.52, 196.61 20.4, 199.72 12.94 M180.31 34.97 C184.66 30.23, 189.17 25.32, 200.74 12.7 M186.04 36.46 C189.05 30.02, 192.44 27.8, 198.87 21.78 M186.47 35.29 C191.75 30.74, 195.04 26.19, 199.12 20.31 M190.83 34.31 C192.45 34.01, 196.71 31.04, 199.17 25.78 M192.13 35.66 C193.71 33.38, 195.33 31.53, 200.02 26.48 M196.81 35.47 C197.29 34.72, 198.32 33.78, 199.59 32.5 M196.97 35.86 C197.53 35.13, 198.25 33.95, 200.09 31.91" stroke="#12b886" stroke-width="0.5" fill="none"></path><path d="M-0.95 -0.17 C42.12 -2.09, 85.98 -0.78, 196.04 1.87 M0.79 0.16 C65.18 -1.71, 132.04 -0.96, 197.28 -0.26 M199.82 -0.9 C199.6 7.45, 196.84 15.16, 199 34.48 M197.33 0.73 C197.64 10.98, 197.82 23.53, 198.82 34.89 M198.89 33.8 C147.7 35.49, 97.57 34.73, -1.93 34.62 M198.85 34.65 C157.94 37.14, 118.05 36.04, -0.52 35 M-1.86 36.68 C-0.79 26.87, -0.22 18.72, -1.3 -0.57 M0.94 34.59 C-0.47 24.81, 0.26 14.58, 0.6 0.12" stroke="#000000" stroke-width="1" fill="none"></path></g><g transform="translate(614.8077392578125 75.01451110839844) rotate(0 94 9.5)"><text x="94" y="15" font-family="Cascadia, Segoe UI Emoji" font-size="16px" fill="#000000" text-anchor="middle" style="white-space: pre;" direction="ltr">@IncrementBefore</text></g><g stroke-linecap="round" transform="translate(605.4915771484375 112.63035583496094) rotate(0 99 17.440200805664062)"><path d="M0 0 C0 0, 0 0, 0 0 M0 0 C0 0, 0 0, 0 0 M-0.32 6.19 C1.3 4.72, 2.5 3.71, 4.86 -0.43 M-0.5 6.52 C1.23 4.72, 1.69 4.12, 4.93 0.54 M-0.34 12.56 C4.07 8.71, 7.8 6.18, 11.2 -0.51 M0.29 12.42 C3.59 8.05, 7.82 3.37, 10.82 -0.54 M0.38 18.42 C6.54 11.45, 9.81 6.91, 15.02 -1.39 M-0.28 18.55 C4.52 13.43, 7.48 9.39, 15.55 0.74 M-0.67 25.29 C9.78 12.83, 17.52 5.54, 19.63 -0.14 M-0.09 23.89 C5.55 17.08, 11.99 9.48, 20.68 -0.7 M1.96 32.32 C7.41 20.05, 14.01 10.67, 26.29 0.75 M0.69 30.95 C7.24 22.43, 12.68 15.34, 25.79 1.09 M1.97 36.59 C10.09 27.26, 19.33 14.54, 32.43 -1.09 M0.99 35.69 C9.54 24.89, 19.4 15.32, 31.49 -1.1 M4.36 36.42 C19.05 21.06, 31.15 9.14, 36.44 2.08 M6.33 35.52 C13.12 28.13, 21.31 17.99, 36.23 1.19 M12.85 35.04 C21.15 23.47, 29.79 12.21, 40.79 -1.78 M12.33 35.81 C21.1 23.87, 30.7 14.32, 41.68 -0.99 M15.56 35.65 C24.53 25.35, 35.75 15.41, 48.64 1.67 M16.6 35.76 C26.16 25.12, 33.65 15.21, 47.47 0.96 M23.54 36.8 C34.46 20.59, 44.58 6.06, 54.96 -0.74 M21.54 34.6 C33.02 22.95, 42.96 10.32, 52.55 0.09 M27.45 34.54 C38.25 22.21, 49.84 10.1, 59.2 0.44 M27.07 36.54 C37.02 24.06, 47.01 12.71, 57.99 0.9 M32.63 36.52 C40.82 27.22, 49.38 19.42, 64.37 -0.64 M32 35.7 C43.97 23.56, 52.94 12.96, 64.3 0.21 M39.73 36.15 C44.49 27.49, 51.13 17.61, 69.66 1.08 M38.81 35.06 C46.61 23.57, 57.56 11.84, 68.21 0.13 M43.22 35.42 C55.2 23.18, 65.6 12.04, 73.62 -0.38 M42.33 36.1 C54.8 21.64, 66.81 9.9, 74.03 -1 M47.25 35.34 C60.43 21.3, 72.62 8.55, 78.73 0.13 M47.81 36.07 C59.98 22.97, 71.54 8.05, 78.42 0.34 M53.59 34.26 C60.39 27.62, 67.62 18.16, 86.53 0.98 M53.03 35.12 C63.77 25.43, 71.85 15.07, 85.75 -0.27 M60.07 34.79 C66.97 25.08, 77.91 12.64, 90.29 -0.08 M58.95 35.97 C69.31 22.56, 79.88 11.27, 90.86 -0.18 M65.23 37.89 C76.24 24.46, 85.38 10.07, 94.09 0.17 M64.53 36.91 C76.68 22.53, 87.01 9.43, 96.39 -0.78 M71.43 37.01 C75.8 27.01, 83.77 20.31, 101.44 0.6 M70.02 34.7 C76.31 26.61, 84.97 18.78, 101.63 -0.54 M73.47 36.21 C85.54 23.21, 99.22 9.53, 106.46 -2.23 M73.82 35.5 C82.78 26, 92.4 14.21, 105.77 -0.09 M81.75 36.28 C90.57 21.1, 104.62 10.17, 110.45 0.13 M79.73 35.83 C86.99 26.33, 95.4 18.1, 110.76 0.74 M86.85 36.91 C97.87 22.35, 107.19 11.01, 116.37 -1.12 M85.81 35.49 C94.34 27.53, 102.5 17.83, 115.96 0.58 M90.67 34.74 C96.38 27.63, 105.4 17.8, 120.78 -1.71 M91.68 34.51 C99.72 25.68, 109.72 15.09, 122.2 -0.26 M95.06 37.54 C103.55 27.83, 107.47 21.49, 125.69 2.18 M95.32 36.08 C105.4 25.07, 116.55 12.52, 125.91 -0.65 M100.97 34.31 C111.29 22.8, 122.73 10.43, 133.07 0.67 M102.39 35.48 C110.31 26.51, 119.65 15.9, 131.77 -0.89 M105.01 37.43 C115.29 23.68, 124.98 15.48, 137.48 0.42 M107.04 35.05 C117.86 22.51, 127.83 11.03, 137.52 0.18 M110.64 36.74 C117.8 26.61, 126.32 20.05, 145.17 -1.34 M113.26 35.09 C120.09 25.41, 128.35 16.79, 143.24 0.13 M116.78 37.72 C130.09 23.92, 137.3 12.37, 146.69 1.4 M117.62 34.81 C128.24 22.65, 139.25 11.71, 148.22 -0.12 M124.88 35.58 C129.88 27.31, 137.98 17.71, 152.08 1.47 M122.63 35.27 C130.39 26.21, 138.73 15.68, 154.24 0.64 M127.64 37.39 C137.94 24.06, 145.97 16.73, 159.43 0.74 M127.56 36.32 C138.15 25.01, 145.66 14.52, 158.38 0.85 M132.04 36.2 C145.18 23.96, 156.51 9.83, 166.03 0.14 M133.73 35.54 C141.23 25.81, 150.12 16.03, 164.34 -0.9 M140.05 37.19 C147.67 26.4, 152.18 18.73, 169.01 1.88 M139.32 35.16 C147.66 24.24, 157.16 13.42, 169.26 1.1 M143.69 35.77 C154.69 21.84, 169.63 6.44, 176.42 -0.51 M144.69 35.02 C154.75 22.52, 165.94 10.02, 175 0.55 M149.67 35.73 C159.42 24.34, 165.18 14.38, 179.91 0.05 M149.22 35.5 C158.35 24.31, 168.06 13.72, 181.02 0.19 M154.54 35.3 C164.73 24.97, 172.24 15.59, 185.81 -1.82 M154.56 34.44 C163.61 24.8, 173.45 14.64, 185.61 0.63 M161.32 37.39 C169.94 24.87, 179.32 10.27, 191.81 -1.69 M159.52 36.1 C168.35 24.82, 176.04 15.22, 190.75 -0.67 M165.9 36.35 C171.5 24.72, 181.21 15.68, 198 0.67 M164.64 36.85 C174.32 26.72, 182.28 15.43, 195.42 -0.45 M169.02 36.4 C178.86 23.43, 188.23 12.74, 198.27 1.04 M170.36 36.32 C179.14 25.4, 186.56 15.09, 199.1 0.8 M176.17 34.02 C180.05 30.99, 187.46 23.71, 198.72 9.53 M175.08 36.64 C184.91 26.65, 192.08 17.24, 200.41 8.46 M180 36.77 C185.56 30.14, 188.81 22.97, 201.47 11.97 M181.81 36.09 C185.56 29.53, 191.55 24.18, 201.1 14.01 M185.01 37.49 C189.62 28.27, 196.73 21.73, 198.05 20.33 M187 36.07 C190.39 31.62, 192.72 26.65, 199.62 20.24 M191.08 36.01 C192.93 32.53, 196.55 30.38, 199.35 27.26 M191.8 35.79 C194.58 31.74, 197.63 28.31, 199.29 26.86 M196.52 35.65 C197.16 34.87, 198.84 33.94, 199.66 31.86 M196.81 35.95 C197.97 34.63, 198.96 33.05, 199.83 31.85" stroke="#12b886" stroke-width="0.5" fill="none"></path><path d="M1.37 0.63 C44.38 -0.3, 88.84 1, 198.07 1.63 M-0.02 0.01 C41.13 0.76, 82.87 -0.23, 198.4 0.39 M198.35 -0.81 C196.84 10.83, 198.67 22.48, 199.15 34.04 M198.9 0.75 C197.06 11.64, 196.94 24.76, 197.01 34.35 M197.8 33.73 C128.8 34, 53.99 35.98, -1.36 33.29 M197.16 35.42 C154.21 37.22, 109.8 35.98, -0.15 35.65 M1.04 35.43 C-0.94 23.86, 0.36 14.38, 0.14 0.19 M-0.05 35.14 C0.15 26.4, 0.09 19.64, 0.5 0.18" stroke="#000000" stroke-width="1" fill="none"></path></g><g transform="translate(610.4915771484375 120.570556640625) rotate(0 94 9.5)"><text x="94" y="15" font-family="Cascadia, Segoe UI Emoji" font-size="16px" fill="#000000" text-anchor="middle" style="white-space: pre;" direction="ltr">@IncrementOnError</text></g><g stroke-linecap="round" transform="translate(605.9906005859375 159.2787628173828) rotate(0 99 17.440200805664062)"><path d="M0 0 C0 0, 0 0, 0 0 M0 0 C0 0, 0 0, 0 0 M-0.82 6.33 C1.46 3.88, 2.86 2.35, 5.2 0.8 M-0.49 6.35 C0.78 5.08, 2.09 3.82, 5.04 0.45 M1.55 11.9 C3.49 7.93, 7.14 3.7, 11.77 -0.83 M0.64 12.16 C4.04 8.4, 8.05 4.07, 10.46 0.19 M0.75 19.95 C3.23 13.28, 9.23 10.5, 16.44 -1.09 M0.13 18.27 C5.39 11.56, 10.05 6.04, 16.08 0.54 M-0.87 22.28 C7.35 14.65, 14.96 3.73, 21.21 0.98 M-0.02 24.71 C6.86 16.69, 14.31 8.39, 21.19 0.69 M0.24 30.79 C7.08 21.22, 19.58 9.76, 24.74 2.12 M-0.12 30.37 C7.61 21.72, 15.89 12.56, 26.25 1.03 M2.02 34.88 C10.43 25.93, 15.13 15.17, 32.33 -1.36 M0.21 34.95 C8.56 26.32, 15.51 19.09, 32.52 -0.1 M4.37 36.54 C12.68 26.86, 19.88 23.1, 36.88 0.33 M5.66 34.93 C15.41 24.96, 23.81 14.47, 36.79 0.64 M12.5 34.08 C16.47 26.86, 24.46 21.97, 41.99 0.6 M12.67 36.07 C21.32 24.36, 29.63 12.77, 42.76 0.49 M18.66 37.11 C22.36 27.63, 28.69 22.73, 46.57 -1.4 M17.42 35.24 C24.33 26.2, 33.04 17.03, 47.78 -0.44 M20.67 34 C30.74 25.49, 41.51 14.5, 51.97 1.33 M22.48 34.69 C30.76 26.49, 38.84 16.9, 52.21 -0.29 M26.54 33.98 C40.02 22.05, 48.91 8.25, 58.65 1.8 M27.7 34.93 C37.43 23.55, 49.45 10.35, 58.2 -0.44 M33.63 33.27 C38.73 27.15, 46.52 17.4, 65.23 1.11 M33.48 35.72 C39.52 26.44, 47.37 18.93, 63.03 -0.63 M37.22 37.19 C47.46 28.55, 54.11 17.01, 69.19 -1.39 M37.58 34.95 C49.07 23.14, 59.36 9.21, 67.92 0.02 M41.03 35.07 C50.76 29.11, 56.94 20.13, 73.92 -1.99 M43.79 36.4 C51.18 25.47, 60.28 15.99, 75.33 -0.11 M49.09 34.57 C57.29 28.89, 62.12 16.09, 77.42 1.52 M48.01 34.84 C60.9 21.05, 73.38 8.11, 79.76 -0.11 M53.68 36.14 C65.21 26.24, 73.46 11.64, 83.37 -0.06 M54.38 35.32 C59.82 27.67, 68.15 20.27, 85.1 0.29 M57.75 35.78 C66.45 23.66, 77.43 15.47, 89.78 -1.17 M59.87 34.74 C70.11 22.63, 82.32 10.85, 89.4 -0.26 M63.59 35.28 C73.35 23.08, 85.43 11.61, 96.1 0.61 M65.17 36.91 C72.64 25.55, 81.44 15.84, 96.23 0.16 M67.95 36.26 C79.17 24.53, 92.58 10.99, 99.88 -1.33 M69.94 35.37 C78.43 25.64, 86.36 14.51, 101.46 -0.29 M74.65 34.36 C85.18 23.45, 92.82 14.32, 107.83 -0.46 M75.65 36.45 C85.75 22.78, 98.78 9.85, 106.55 -0.29 M81.68 37.3 C91.2 21.68, 102.24 10.89, 112.52 0.97 M80.89 36.07 C92.76 22.83, 103.85 8.95, 111.44 -0.44 M85.89 35.07 C92.64 28, 99.07 17.39, 114.8 -1.17 M86.2 36.81 C91.28 27.69, 98.09 19.99, 117.11 0.48 M90.06 33.99 C97.54 25.27, 105.19 18.17, 123.7 1.47 M91.33 34.75 C97.16 29.21, 102.46 21.59, 121.76 0.63 M95.56 34.9 C107.79 21.38, 120.19 9.02, 128.39 0.11 M96.11 36.46 C104.49 24.33, 113.74 14.7, 126.84 0.35 M101.44 35.22 C110.24 24.87, 120.16 14.94, 132.6 -0.28 M101.74 35.91 C110.95 24.44, 120.79 13.88, 131.75 -0.17 M105.09 35.14 C114.18 28.06, 122.22 17.58, 139.24 1.11 M107.59 35.45 C114.43 26.63, 120.15 20.04, 136.62 0.06 M113.34 35.7 C120.95 22.1, 131.79 11.41, 141.57 -0.91 M112.54 34.67 C121.03 24, 131 13.49, 143.64 -0.28 M119.1 36.93 C127.7 25.16, 134.21 13.78, 147.8 0.6 M117.74 35.43 C129.05 21.57, 141.33 6.9, 147.88 0.18 M124.47 35.97 C133.6 20.73, 143.99 7.63, 152.18 -1.23 M122.02 34.72 C134.45 23.41, 144.6 10.85, 154.57 0.39 M129.38 37.2 C136.34 26.17, 144.48 20.32, 159.71 -0.85 M128.58 35.65 C139.02 22.53, 149.06 11.39, 157.96 -0.13 M134.72 34.35 C143.41 24.24, 154.54 13.27, 165.17 1.75 M134.4 34.36 C142.4 24.3, 151.88 12.44, 164.58 -0.43 M138.94 36.67 C147.24 23.65, 154.53 15.11, 169.81 -0.81 M139.01 34.96 C144.19 29.28, 150.57 21.16, 170.1 0.9 M145.19 35 C151.67 25.37, 160.13 14.02, 176.46 -1.17 M143.81 34.47 C152.02 27.28, 159.91 16.64, 174.62 0.57 M149.94 35.92 C162.04 20.96, 171.94 8.3, 178.13 0.9 M148.87 35.78 C155.99 27.74, 162.58 21.37, 179.46 -0.38 M154.13 35.87 C165.86 24.24, 176.39 9.75, 185.17 0.62 M154.27 34.53 C162.76 27.2, 168.89 18.98, 186.54 0.28 M159.76 35.3 C167.5 29.2, 176.92 19.2, 189.87 -1.67 M158.89 36.14 C172.23 21.4, 183.75 6.28, 191.11 0.98 M164.37 37.51 C174.75 24.93, 184.95 13, 197.6 1.58 M165.07 35.38 C177.47 22.99, 189.52 7.63, 197.11 -0.79 M168.95 35.01 C178.64 28.41, 185.87 17.48, 198.12 0.81 M170.7 35.65 C180.74 22.93, 191.75 12.49, 200.68 2.04 M173.85 35.97 C182.36 26.2, 190.67 18.12, 200.03 8.22 M175.35 36.16 C182.09 28.83, 189.07 19.52, 198.78 7.75 M181.25 35.03 C185.19 27.77, 192.93 21.12, 198.59 15.06 M180.85 35.55 C185.08 30.62, 189.49 26.2, 199.18 13.98 M187.76 35.43 C189.28 28.54, 197.18 22.92, 201.08 18.09 M186.2 34.9 C190.56 29.73, 196.63 24.22, 200.06 21.04 M191.65 35.3 C193.75 31.41, 195.86 28.14, 200.2 26.61 M191.17 34.97 C193.82 33.15, 196.98 30.48, 199.8 26.02 M196.83 36.17 C197.42 35.11, 198.47 33.2, 199.98 32.39 M196.87 35.76 C197.48 35.04, 198.26 34.22, 199.93 32.21" stroke="#12b886" stroke-width="0.5" fill="none"></path><path d="M0.95 1.51 C57.65 -1.9, 116.87 -2.26, 199.6 -0.48 M0.61 0.36 C71.69 -0.18, 140.97 -0.63, 197.51 -0.12 M198.65 -1.51 C197.86 7.5, 199.17 13.3, 196.01 36.4 M198.34 0.54 C197.8 7.9, 198.51 13.99, 198.91 34.33 M197.59 33.82 C142.85 35.64, 82.84 34.17, 1.87 35.25 M197.85 34.63 C147.14 35.2, 96.51 35.17, -0.82 34.87 M0.95 35.35 C-1.78 25.39, 0.31 11.72, -1.7 -0.04 M-0.02 34.31 C0.27 22.95, 0.58 10.67, 0.73 -0.23" stroke="#000000" stroke-width="1" fill="none"></path></g><g transform="translate(610.9906005859375 167.21896362304688) rotate(0 94 9.5)"><text x="94" y="15" font-family="Cascadia, Segoe UI Emoji" font-size="16px" fill="#000000" text-anchor="middle" style="white-space: pre;" direction="ltr">@IncrementAround</text></g><g stroke-linecap="round" transform="translate(608.4552001953125 306.31993103027344) rotate(0 99 17.440200805664062)"><path d="M0 0 C0 0, 0 0, 0 0 M0 0 C0 0, 0 0, 0 0 M-0.46 6.97 C1.33 3.53, 3.37 2.51, 5.63 0.95 M-0.15 6.55 C1.2 4.58, 2.51 2.99, 5.07 0.03 M-0.51 13.59 C1.76 10.32, 4.58 7.39, 9.56 0.22 M0.56 12.11 C1.82 9.03, 5.69 6.24, 9.84 -0.34 M-1.68 17.37 C3.68 16.18, 7.54 12.24, 16.92 1.12 M0.84 18.02 C3.57 13.62, 6.5 9.6, 14.9 0.67 M-1.15 23.03 C6.14 20.54, 7.45 16.24, 22.67 1 M0.96 24.13 C6.79 15.43, 14.31 7.93, 21.63 -0.43 M0.79 29.85 C10.07 17.25, 20.88 8.99, 25.83 -0.42 M-0.8 29.91 C5.22 23.21, 11.41 16.37, 26.85 -0.66 M1 35.93 C8.26 24.38, 15.99 17.17, 30.88 1.63 M1.43 34.76 C12.58 23.67, 21.69 12.42, 31.14 0.16 M4.53 33.74 C11.51 27.99, 23.02 17.97, 36.13 -0.85 M6.69 35.99 C13.26 27.73, 19.95 20.06, 37.55 0.32 M12.02 33.78 C19.22 24.3, 28.82 14.24, 40.83 1.51 M12.64 35.31 C19.2 27.68, 26.25 18.15, 42.86 -0.86 M17.37 35.65 C26.3 23.69, 37.46 15.82, 45.81 1.58 M17.57 36.69 C22.79 27.66, 30.49 19.51, 48.42 -0.07 M22.32 35.42 C31.3 26.78, 38.49 18.32, 52.6 1.81 M23.05 34.56 C35.05 21.84, 47.26 8.14, 53.44 -1.11 M29.05 35.77 C37.09 22.12, 47.86 12.57, 60.05 0.42 M26.76 34.8 C36.85 25.1, 44.96 15.15, 57.8 0.11 M31.32 36.13 C41.29 27.4, 47.95 18.91, 63.46 1.47 M33.84 35.58 C44.43 22.65, 55.54 10.31, 63.38 0.41 M39.08 34.79 C51.13 23.02, 63.72 9.93, 67.21 1.04 M37.66 36.42 C48.91 22.19, 59.38 10.68, 68.89 0.38 M40.98 35.79 C49.75 24.77, 57.8 18.65, 75.87 1.28 M42.48 35.78 C56.43 21.8, 67.43 7.5, 75.14 -0.75 M48.2 35.25 C57.47 29.28, 60.81 21.71, 78.85 0.61 M47.57 36.26 C55.45 27.8, 63.42 18.48, 79.86 -0.14 M54.42 35.82 C63.04 26.68, 69.47 19.39, 85.49 -0.19 M53.29 35.88 C65.11 23.06, 76.8 10.17, 85.04 -0.41 M58.28 37.49 C68.38 24.94, 77.38 16.4, 89.71 0.14 M59.72 35.61 C69.13 23.12, 80.24 10.88, 89.73 -0.72 M63.97 35.73 C74.4 26.81, 79.68 15.51, 97.14 1.48 M63.52 36.48 C71.45 26.28, 81.17 17.37, 95.34 0.19 M68.41 35.64 C78.27 23.69, 89.98 15.28, 101.72 0.43 M69.22 36.36 C77.61 27.2, 84.04 18.44, 100.46 0.93 M73.82 34.06 C85.53 23.27, 99.17 8.31, 104.84 0.48 M74.01 35.01 C83.28 26.15, 92.68 16.41, 106.18 0.4 M78.88 33.68 C89.15 22.9, 101.72 11, 111.99 -1.9 M81.1 34.97 C88.22 27.55, 94.15 18.68, 110.9 0.73 M87.33 37.19 C97.7 21.68, 109.43 8.47, 115.16 1.61 M84.49 36.51 C93.71 25.26, 103.98 14.5, 116.97 0.93 M91.13 37.38 C99.71 28.27, 106.98 18.44, 120.83 1.57 M90.3 34.54 C97.76 27.96, 103.72 21.6, 122.82 0.15 M95.05 35.3 C107.19 22.67, 115.68 11.91, 125.8 1.18 M95.59 35.59 C104 28.19, 110.21 18.56, 127 0.82 M99.81 34.33 C112.2 24.27, 118.72 14.92, 131.73 -0.9 M101.65 34.72 C108.05 28.13, 115.9 18.89, 132.88 0.31 M106.72 34.37 C114.21 25.63, 124.03 12.51, 137.69 -0.39 M106.85 36.47 C115.77 24.22, 126.42 13.09, 137.46 -0.06 M112.77 33.92 C121.97 24.32, 131.41 11.72, 143.37 -1.27 M111.91 35.78 C120 27.68, 125.62 18.16, 142.66 -0.13 M119.28 36.22 C125.31 23.53, 136.9 15.82, 149.61 -1.65 M116.73 34.95 C128.57 24.02, 139.21 10.38, 148.15 0.04 M123.02 35.36 C135.9 23.74, 147.87 8.73, 153.61 0.34 M123.72 34.57 C130.95 26.02, 137.05 17.69, 154.64 -0.89 M128.83 34.46 C134.31 25.05, 145.65 17.42, 157.5 0.68 M128.58 36.44 C138.13 25.46, 147.22 13.31, 158.74 -0.57 M132.76 35.69 C143.43 24.91, 152.1 14.88, 163.51 -0.4 M133.64 34.54 C142.64 23.39, 153.6 11.5, 164.21 -0.09 M138.69 34.52 C145.84 27.52, 154.19 15.86, 170.53 -0.31 M138.66 35.93 C147 25.35, 157.87 15.01, 168.83 1.03 M145.41 33.74 C154.28 23.77, 163.33 16.26, 173.31 0.01 M144.15 35.73 C150.88 29.22, 157.25 21.88, 175.66 -0.27 M147.34 33.65 C159.1 26.12, 166.69 13.89, 179.02 -1.73 M150.15 36.01 C156.25 27.27, 162.66 20.94, 179.91 0.36 M153.55 34.15 C166.12 23.35, 175.4 7.99, 186.43 0.87 M155.6 34.78 C162.44 26.65, 170.25 16.42, 186.19 -0.37 M160.46 36.9 C168.09 26.52, 175.86 15.08, 190.5 1.13 M159.11 34.87 C168 26.48, 178.23 16.47, 191.38 -0.48 M166.28 36.15 C173.98 23.87, 184.14 15.1, 197.5 1.31 M165.63 35.67 C175.65 22.83, 187 10.67, 195.91 0.25 M170.92 37.14 C179.2 26.45, 184.18 17.74, 200.36 0.32 M170.53 36.28 C179.6 25.5, 189.44 15.34, 199.25 0.72 M175.89 34.5 C186.13 28.09, 192.62 17.37, 201.1 8.55 M175.73 36.73 C184.57 25.37, 193.19 15.23, 200.61 8.16 M182.77 35.06 C185.96 27.37, 190.77 21.9, 198.64 13.22 M180.3 35.61 C185.88 30.51, 191.21 23.88, 200.85 14.3 M185.86 36.04 C190.36 30.46, 192.17 26.92, 198.16 20.81 M185.33 35.11 C190.68 31.1, 192.97 27.72, 200.14 20.65 M191.45 35.28 C194.84 32.55, 196.24 30.15, 200.41 27.48 M191.42 35.7 C193.95 34.02, 195.18 31.52, 199.75 26.38 M196.93 36.06 C198.28 34.88, 199.72 33.36, 200.04 32.29 M196.65 35.85 C197.89 34.92, 198.4 33.67, 200.16 31.91" stroke="#40c057" stroke-width="0.5" fill="none"></path><path d="M-1.79 -1.12 C41.55 0.77, 83.53 0.11, 198.3 -0.56 M0.82 -0.39 C71.67 0.22, 143.82 -1.22, 197.41 0.12 M199.9 -0.77 C196.16 12.84, 197.56 20.87, 196.69 34.63 M198.27 -0.34 C197.9 10.81, 197.5 20.39, 197.25 35.36 M196.1 32.93 C143.88 33.2, 87.68 34.69, 0.04 33.19 M197.71 35.63 C147.52 33.82, 94.79 32.95, -0.52 34.05 M1.18 36.3 C-0.02 23.07, -0.03 11.3, 0.88 -0.76 M-0.67 35.01 C-0.14 27.57, -0.93 20.27, -0.24 0.41" stroke="#000000" stroke-width="1" fill="none"></path></g><g transform="translate(613.4552001953125 314.2601318359375) rotate(0 94 9.5)"><text x="94" y="15" font-family="Cascadia, Segoe UI Emoji" font-size="16px" fill="#000000" text-anchor="middle" style="white-space: pre;" direction="ltr">@HistogramBefore</text></g><g stroke-linecap="round" transform="translate(607.166748046875 354.29661560058594) rotate(0 99 17.440200805664062)"><path d="M0 0 C0 0, 0 0, 0 0 M0 0 C0 0, 0 0, 0 0 M-1.02 6.03 C1.23 5.58, 2.06 3.89, 4.79 -0.34 M0.08 6.56 C1.06 4.44, 2.72 2.92, 5.35 0.41 M0.56 11.23 C3.73 10.65, 4.06 4.49, 9.05 1.08 M-0.31 11.44 C4.46 6.75, 8.88 2.81, 10.92 -0.22 M0 18.62 C6.65 14.47, 9.99 5.51, 13.95 0.54 M0.7 17.8 C2.78 14.01, 7.65 10.58, 15.67 0.89 M-1.18 24.3 C4.69 15.4, 12.91 10.39, 21.01 -1.32 M0.95 23.27 C7.69 15.21, 16.3 7.58, 20.63 -0.42 M-0.58 29.84 C7.39 19.7, 17.71 10.25, 26.68 1.21 M1 31.47 C7.12 21.72, 14.51 13.63, 26.81 0.76 M-0.81 36.11 C10.41 24.38, 23.81 10.84, 31.11 -1.48 M1.17 35.22 C9.66 25.49, 17.59 14.36, 32.69 -0.44 M5.88 34.21 C16.2 23.53, 23.64 14.64, 38.41 0.14 M6.88 36.29 C16.74 22.9, 29.53 10.25, 37.13 0.31 M12.91 37.15 C22.43 21.52, 33.47 10.74, 43.76 0.82 M12.13 35.92 C23.99 22.67, 35.08 8.8, 42.67 -0.59 M17.12 34.92 C23.87 27.85, 30.31 17.23, 46.03 -1.32 M17.43 36.66 C22.51 27.54, 29.32 19.84, 48.34 0.33 M21.29 33.84 C28.78 25.12, 36.42 18.02, 54.94 1.31 M22.56 34.59 C28.39 29.06, 33.69 21.43, 52.99 0.47 M26.79 34.74 C39.03 21.22, 51.42 8.87, 59.63 -0.04 M27.35 36.3 C35.72 24.18, 44.97 14.55, 58.08 0.2 M32.67 35.06 C41.48 24.72, 51.39 14.79, 63.83 -0.43 M32.98 35.76 C42.18 24.29, 52.02 13.73, 62.99 -0.32 M36.32 34.99 C45.41 27.91, 53.45 17.43, 70.47 0.96 M38.83 35.29 C45.66 26.48, 51.39 19.89, 67.85 -0.09 M43.92 36.3 C51.75 22.45, 62.81 11.5, 72.8 -1.06 M43.11 35.27 C51.8 24.35, 61.99 13.61, 74.88 -0.44 M50.33 36.78 C58.93 25, 65.44 13.62, 79.03 0.44 M48.98 35.28 C60.28 21.42, 72.56 6.75, 79.11 0.02 M55.04 36.57 C64.42 21.06, 75.05 7.68, 83.41 -1.38 M52.59 35.32 C65.25 23.75, 75.63 10.94, 85.8 0.24 M60.61 37.04 C67.58 26.01, 75.71 20.16, 90.94 -1 M59.81 35.5 C70.25 22.38, 80.29 11.23, 89.19 -0.29 M65.3 34.95 C74.21 24.58, 85.56 13.37, 96.4 1.59 M64.98 34.96 C73.17 24.67, 82.86 12.57, 95.81 -0.58 M70.17 36.52 C78.47 23.49, 85.77 14.95, 101.04 -0.97 M70.24 34.81 C75.42 29.12, 81.8 21, 101.33 0.74 M75.76 35.6 C82.44 25.76, 91.09 14.2, 107.69 -1.33 M74.39 35.07 C82.77 27.69, 90.82 16.86, 105.85 0.42 M81.18 35.77 C93.27 20.81, 103.17 8.15, 109.36 0.75 M80.11 35.62 C87.22 27.58, 93.81 21.22, 110.7 -0.53 M84.71 36.47 C96.43 24.84, 106.97 10.35, 115.74 1.23 M84.85 35.14 C93.34 27.8, 99.46 19.58, 117.12 0.89 M90.99 35.15 C98.73 29.04, 108.16 19.05, 121.1 -1.82 M90.12 35.98 C103.46 21.24, 114.98 6.13, 122.34 0.83 M95.6 37.35 C105.77 25.02, 115.77 13.33, 128.18 2.18 M96.3 35.22 C108.46 23.12, 120.26 8.05, 127.69 -0.19 M100.18 34.86 C110.2 27.88, 117.75 16.58, 130.66 -0.85 M101.94 35.5 C112.43 22.25, 123.9 11.28, 133.22 0.38 M105.09 35.82 C115.79 23.59, 126.24 13.05, 137.83 0.52 M106.58 36.01 C115.13 26.58, 123.97 15.14, 136.57 0.05 M112.48 34.87 C120.11 23.52, 131.43 12.73, 141.63 1.32 M112.09 35.39 C118.91 27.45, 125.87 20.09, 142.22 0.24 M118.99 35.28 C126.57 21.36, 140.67 8.62, 149.37 -1.68 M117.43 34.74 C128.35 22.15, 141 9.06, 148.35 1.26 M122.82 35.01 C132.15 21.54, 141.66 9.21, 154.78 0.14 M122.02 34.47 C131.81 25.57, 142.24 15.17, 154.12 -0.84 M128.35 36.94 C136.27 26.26, 146.07 12.12, 158.68 1.43 M128.51 35.29 C134.66 28.26, 141.33 20.87, 158.5 0.74 M133.31 34.88 C141.55 27.89, 150.13 18.38, 164.07 0.9 M134.1 35.13 C140.23 25.95, 147.82 17.51, 163.59 0.45 M137.37 35.82 C149.21 24.35, 162.58 9.46, 168.8 -0.46 M139.38 36.1 C147.17 24.74, 157.14 14.42, 169.41 -0.65 M145.26 33.92 C153.69 23.54, 166.77 11.82, 176.64 -1.32 M143.59 35.37 C153.9 24.4, 162.23 15.69, 175.23 0.03 M147.44 36.76 C160.22 21.12, 173.3 6.99, 181.97 2.15 M149.49 36.2 C157.38 25.26, 167.03 15.79, 180.37 -0.44 M155.16 35.37 C166.3 24.01, 177.02 11.25, 184.84 -1.62 M154.65 34.78 C160.73 28.75, 166.77 20.95, 185.53 0.42 M161.15 34.42 C170.25 24.24, 180.25 11.97, 191.63 -1.45 M160.23 35.25 C168.14 25.52, 176.09 15.78, 191.58 -0.57 M166.04 35.04 C172.92 27.54, 180.36 17.06, 198.18 -1.3 M165.7 35.3 C175.55 22.65, 186.09 11.26, 196.9 0.71 M170.28 37.25 C176.63 25.45, 186.27 18.95, 201.07 3.38 M170.88 35.46 C181.52 21.58, 192.93 9.06, 200.84 2.11 M174.06 34.29 C181.13 28.46, 186.01 22.43, 200.15 8.49 M176.04 36.2 C185.73 25.15, 195.13 13.75, 200.43 8.91 M179.77 35.53 C186.62 29.29, 190.75 20.55, 198.24 14.62 M180.6 35.66 C186.04 29.73, 190.15 25.65, 200.29 13.91 M184.63 36.56 C190.23 32.34, 190.82 27.49, 198.6 21.54 M185.9 36.59 C189.4 31.78, 191.44 28.21, 200.27 20.78 M191.77 36.6 C192.98 33.73, 195.95 30.23, 199.03 26.9 M192.2 35.36 C193.99 33.25, 196.83 29.77, 199.46 26.1 M196.29 35.98 C197.58 34.79, 198.5 33.91, 200.48 31.62 M196.81 36.01 C197.36 35.05, 198.5 34.04, 199.96 31.92" stroke="#40c057" stroke-width="0.5" fill="none"></path><path d="M1.99 1.42 C39.29 -1.5, 79.31 0.75, 197.06 -1.62 M0.74 -0.45 C52.22 -1.43, 105.25 -1.2, 198.27 -0.66 M196.35 -1.3 C196.01 12.74, 196.93 24.23, 196.82 36.39 M198.16 -0.61 C198.81 9.51, 198.77 18.45, 197.06 34.76 M197.24 33.2 C124.77 32.33, 47.7 31.85, 0.51 36.49 M198.4 34.16 C128.76 36.6, 61.14 35.75, 0.06 34.25 M0.68 32.88 C-1.62 26.69, -1.23 17.08, 1.45 1.31 M0.53 35.33 C-0.45 26.41, 0.37 19.03, -0.75 -0.42" stroke="#000000" stroke-width="1" fill="none"></path></g><g transform="translate(612.166748046875 362.23681640625) rotate(0 94 9.5)"><text x="94" y="15" font-family="Cascadia, Segoe UI Emoji" font-size="16px" fill="#000000" text-anchor="middle" style="white-space: pre;" direction="ltr">@HistogramAfter</text></g><g stroke-linecap="round" transform="translate(610.19921875 403.1442108154297) rotate(0 99 17.440200805664062)"><path d="M0 0 C0 0, 0 0, 0 0 M0 0 C0 0, 0 0, 0 0 M-0.73 7.16 C1.76 4.16, 4.24 1.65, 4.52 0.64 M-0.63 6.54 C0.92 5.02, 1.87 3.95, 5.37 0.02 M-0.21 13.48 C5.68 6.6, 7.4 3.69, 9.43 1.43 M-0.06 12.04 C3.06 9.03, 6.22 5.33, 11.42 -0.26 M-1.6 19.9 C4.5 12.28, 13.2 4.85, 17.47 0.9 M0.56 19.31 C3.11 14.39, 5.62 10.83, 16.13 1.28 M0.95 23 C5.12 18.12, 12.71 9.22, 20.95 -0.75 M-0.37 23.27 C7.01 17.75, 12.64 10.58, 20.93 -0.23 M0.1 32.27 C10.55 19.57, 20.09 8.21, 26.97 -0.5 M-0.99 31.06 C8.79 20.13, 19.17 9.49, 27.11 -0.49 M2.83 34.82 C13.06 23.27, 21.17 9.9, 33.4 0.15 M1.71 34.4 C11.03 23.27, 20.3 11.74, 32.78 0.63 M5.6 34.85 C16.87 24.24, 29.09 7.94, 37.18 1.71 M5.24 35.54 C13.81 27.91, 22.39 17.25, 37.86 -0.02 M13.67 33.35 C23.3 23.48, 33.25 13.75, 41.44 0.78 M11.17 35.77 C20.25 26.34, 28.66 15.82, 43.37 0.09 M14.81 35.17 C25.68 24.9, 35.24 14.54, 48.15 0.22 M17 35.24 C26.5 25.73, 34.26 15.6, 48.27 0.06 M21.91 36.35 C31.6 22.93, 40.6 12.88, 53.22 -0.77 M22.94 35.2 C29.1 28.42, 36.37 19.05, 52.77 0.56 M25.53 34.35 C40.55 19.84, 50.94 8.67, 59.14 -0.48 M26.66 34.95 C38.09 22.71, 48.41 11.29, 59.13 0.72 M33.06 34.06 C44.71 25.11, 52.49 12.56, 62.08 -0.61 M32.67 34.77 C43.8 21.11, 56.84 8.49, 62.98 -0.94 M37.34 34.03 C46.84 23.2, 58.9 12.97, 68.56 -0.09 M37.09 34.84 C48.47 21.63, 60.38 9.51, 68.13 0.5 M43.14 37.28 C48.55 29.84, 57.04 19.67, 74.53 -1.02 M42.3 36.93 C55.01 22.83, 65.48 9.47, 73.9 -0.8 M47.02 33.69 C61.07 21.1, 70.15 10.64, 78.04 1.52 M49.07 35.61 C60.67 23.45, 71.63 10.58, 79.9 -0.43 M53.31 34.38 C64.03 22.68, 77.27 8.22, 86.3 1.52 M52.62 35.44 C63.11 24.6, 72.85 11.95, 85.36 -0.83 M60.53 34.59 C69.56 24.95, 81.94 11.14, 88.37 0.27 M59.29 34.61 C69.42 24.17, 80.19 10.69, 89.93 -0.33 M65.99 35.79 C71.19 25.71, 82.22 18.56, 94.26 0.35 M63.35 35.93 C74.01 22.56, 85.66 10.46, 95.05 -0.23 M69.01 35.82 C79.34 24.91, 85.03 17.47, 99.55 -0.1 M70.32 35.73 C77.1 25.85, 86.39 16.12, 100.66 0.14 M75.42 35.01 C83.45 28.62, 91.27 17.01, 104.51 -1.38 M75.79 36.85 C84.41 24.78, 92.58 15.47, 106.6 0.38 M80.79 34.28 C84.97 29.04, 94.55 21.3, 110.76 -0.02 M80.68 35.51 C88.72 26.34, 98.16 16.7, 111.39 -0.09 M87.01 37.33 C94.05 25.74, 104.52 11.6, 115.67 2.05 M86.13 36.28 C91.8 26.85, 98.92 20.39, 116.88 -0.27 M89.41 36.69 C102.45 25.36, 111.79 13.1, 120.36 -0.13 M90.76 35.03 C98.03 28.01, 104.7 19.91, 122.37 -0.48 M97.4 35.89 C103.31 23.71, 113.22 15.5, 125.51 -0.11 M95.49 35.86 C105.05 24.44, 115.79 13.49, 126.65 0.89 M101.57 35.56 C110.68 23.85, 119.28 17.29, 133.91 -1.25 M100.87 36.01 C112.84 22.69, 124.45 9.36, 132.72 -0.94 M106.37 35.6 C117.51 25.4, 128.16 14.79, 139.02 1.49 M105.88 34.84 C114.78 26.05, 124.92 15.11, 136.58 -0.21 M113.17 37.24 C119.72 28.89, 123.86 21.36, 144.14 -0.38 M113.23 34.72 C121.43 24.19, 132.43 11.93, 142.5 0.28 M116.93 37.22 C127.49 22.48, 140.38 9.57, 147.03 1.26 M118.21 36.05 C126.85 25.45, 135.54 14.93, 147.92 0.18 M121.29 33.87 C132.36 21.51, 145.84 12.18, 155 1.27 M123.96 36.07 C130.41 26.65, 137.35 18.42, 154.66 0.46 M127.24 37.29 C138.9 22.29, 149.46 9.99, 157.57 -0.6 M128.32 35.93 C139.82 24.29, 149.31 10.89, 157.82 0.42 M132.21 35.42 C142.25 27.12, 148.55 20.18, 165.58 -1.66 M133.09 35.52 C139.19 28.9, 147.4 20.35, 165.04 0.52 M138.69 36.19 C150.07 24.85, 157.37 13.17, 167.84 1.93 M138.92 36.51 C148.04 23.91, 157.29 12.23, 169.34 -0.55 M145.38 33.65 C153.14 25.22, 162.86 16.32, 174.21 1.24 M144.55 35.16 C155.77 22.8, 166.16 9.1, 174.42 -1.05 M147.82 34.1 C158.2 25.53, 168.8 10.83, 180.25 0.7 M149.66 35.4 C160.3 23.78, 171.06 10.52, 179.45 0.83 M153.46 34.17 C167.67 22.77, 180.87 7.04, 186.36 0.22 M154.18 35.65 C163.9 25.7, 173.32 15.78, 186.45 -0.16 M158.37 35.01 C170.3 25.3, 181.83 9.73, 190.37 1.35 M159.08 35.82 C166.33 27.57, 174.54 20.18, 191.02 0.68 M165.62 37.11 C176.04 24.15, 189.04 9.83, 194.71 1.35 M165.07 35 C171.32 26.63, 180.01 18.58, 195.72 -1.13 M169.27 34.72 C179.14 27.37, 185.67 17.56, 201.68 0.86 M170.64 34.59 C176.76 27.1, 184.5 19.27, 199.52 1.25 M174.2 34.19 C180.7 28.86, 190.32 20.19, 199.93 6.78 M176.19 35.56 C182.59 27.21, 190.29 19.27, 200.49 7.62 M182.63 36.86 C187.37 26.82, 194.31 17.65, 200.25 13.55 M180.68 36.09 C184.66 31.76, 188.25 25.59, 199.75 12.91 M186.75 37.18 C190.51 30.33, 193.88 26.8, 200.99 21.67 M186.44 36.54 C189.42 30.64, 194.16 27.27, 199.08 20.43 M191.76 36.31 C192.58 32.92, 195.61 32.68, 198.51 25.4 M192.18 36 C193.7 33.63, 195.17 31.29, 199.15 26.04 M196.71 35.63 C197.66 34.9, 199.4 33.1, 199.86 32 M196.87 35.64 C197.81 34.58, 198.99 33.4, 200.02 32.07" stroke="#40c057" stroke-width="0.5" fill="none"></path><path d="M0.87 1.93 C66.45 0.75, 133.32 -0.56, 196.94 -1.44 M0.09 -0.71 C65.61 2.51, 132.92 1.07, 198.93 0.7 M196.95 1.39 C198.26 10.83, 197.31 23.69, 198.82 35.63 M198.99 0.39 C197.96 9.43, 197.5 19.09, 198.81 34.67 M198.82 33.27 C144.49 33.52, 92.98 33.68, 0.11 36.08 M198.71 34.85 C157.62 35.43, 115.8 35.38, 0.03 34.38 M-1.8 35.63 C-1.36 23.23, 0.12 6.92, 1.99 -1.51 M0.97 34.13 C-0.82 22.51, 0.88 13.04, 0.11 -0.37" stroke="#000000" stroke-width="1" fill="none"></path></g><g transform="translate(615.19921875 411.08441162109375) rotate(0 94 9.5)"><text x="94" y="15" font-family="Cascadia, Segoe UI Emoji" font-size="16px" fill="#000000" text-anchor="middle" style="white-space: pre;" direction="ltr">@HistogramOnError</text></g><g stroke-linecap="round"><g transform="translate(511.3934326171875 202.28492213716527) rotate(0 186.61814103468794 -0.037473786276677856)"><path d="M0.71 0.77 C63.02 0.45, 311.59 -0.64, 373.61 -0.84 M-0.37 0.13 C61.77 0.48, 309.9 0.28, 372.49 0.38" stroke="#000000" stroke-width="1" fill="none"></path></g><g transform="translate(511.3934326171875 202.28492213716527) rotate(0 186.61814103468794 -0.037473786276677856)"><path d="M345.58 10.09 C351.11 5.78, 359.62 5.05, 374.44 -1.22 M343.47 10.34 C349.86 7.52, 356.77 5.97, 373.15 0.28" stroke="#000000" stroke-width="1" fill="none"></path></g><g transform="translate(511.3934326171875 202.28492213716527) rotate(0 186.61814103468794 -0.037473786276677856)"><path d="M345.58 -10.43 C351.29 -9, 359.8 -3.98, 374.44 -1.22 M343.48 -10.18 C349.95 -8.33, 356.86 -5.23, 373.15 0.28" stroke="#000000" stroke-width="1" fill="none"></path></g></g><g stroke-linecap="round" transform="translate(608.7860107421875 451.74522399902344) rotate(0 99 17.440200805664062)"><path d="M0 0 C0 0, 0 0, 0 0 M0 0 C0 0, 0 0, 0 0 M0.25 6.13 C1.36 5, 3.75 1.73, 5.02 1.08 M-0.11 6.54 C1.31 4.64, 3.57 2.49, 4.59 0.59 M1.55 13.42 C1.52 9.58, 6.42 6.75, 12.05 -0.47 M-0.21 12.64 C4.2 7.68, 7.78 2.73, 11.15 -0.81 M-1.78 20.23 C6.04 14.82, 11.07 6.95, 15.18 -0.55 M-0.77 18.59 C4.84 12.86, 7.78 7.94, 14.82 0.14 M-1.61 26.05 C5.45 17.58, 10.52 10.39, 23.24 -2.05 M1 23.54 C8.48 14.82, 15.27 6.2, 20.74 0.37 M-0.08 32.17 C7.93 21.73, 16.48 11.98, 24.39 -0.23 M0.16 30.8 C7.7 21.51, 15.28 12.27, 26.58 -0.17 M1.16 36.89 C12.95 21.4, 26.48 7.47, 31.49 0.95 M0.61 35.4 C10.47 23.75, 19.88 13.52, 32.51 -0.21 M4.57 34.96 C16.17 27.08, 23 16.2, 35.11 -1.06 M6.45 36.23 C17.01 23.67, 28.49 9.67, 36.24 -0.45 M12.05 37.31 C22.47 24.99, 29.41 12.2, 42.64 -1.34 M11.53 34.48 C23.15 22.67, 35.77 8.82, 42.25 -0.63 M18.62 34.09 C21.73 29.05, 29.01 19.17, 46.92 -1.37 M17.33 35.59 C23.23 28.91, 30.23 20.25, 46.67 -0.57 M23.05 34.03 C29.77 26.11, 34.29 22.33, 53.37 1.12 M21.69 35.36 C29.33 27.03, 38.13 18.03, 52.53 0.77 M28.4 34.65 C37.35 24.03, 49.68 9.66, 56.6 -1.72 M27.65 34.98 C39.6 23.33, 49.72 9.39, 58.65 0.21 M33.19 36.27 C43.95 22.5, 55.36 5.55, 63.55 -1.78 M32.73 35.89 C40.23 28.12, 46.27 20.67, 62.85 -0.72 M36.01 36.25 C45.22 26.9, 53.35 15.17, 70.1 -0.81 M37.77 34.8 C46.36 26.02, 54.7 14.88, 68.86 -0.8 M42.01 35.8 C49.58 26.4, 56.51 18.17, 76.23 -0.37 M43.56 35.28 C50.67 27.76, 57.73 19.73, 73.58 -0.23 M46.77 34.34 C56.14 26.64, 63.34 19.3, 78.58 0.42 M48.95 35.04 C60.08 22.3, 71.86 9.74, 79.9 0.33 M52.24 35.95 C60.97 26.42, 66.5 20.73, 85.65 -1.15 M52.95 35.06 C63.42 23.45, 74.48 11.15, 86.02 0.7 M61.17 36.15 C70.76 22.43, 80.36 13.23, 90.37 -1.12 M59.36 35.29 C65.84 27.22, 73.44 19.54, 90.25 0.11 M65.79 36.12 C73.22 25.19, 81.71 15.2, 97.24 1.18 M63.62 35.62 C71.72 27.28, 77.59 20.43, 96.36 0.12 M70.89 36.74 C76.19 27.67, 84.96 18.88, 98.99 1.29 M70.08 34.74 C81.04 21.34, 92.62 8.29, 100.34 -0.37 M74.45 36.78 C83.87 24.05, 95.3 12.54, 107.63 -0.27 M74.85 35.18 C81.93 27.98, 88.9 18.94, 105.72 -0.3 M78.79 34.98 C89.3 26.16, 95.69 17.66, 111.15 0.16 M81.09 36.17 C90.24 24.66, 100.65 11.41, 110.45 0.61 M87.17 36.2 C90.34 28.44, 96.98 18.67, 115.94 0.2 M85.82 36.59 C96.6 23.23, 106.47 10.59, 115.46 -0.57 M90.92 33.54 C96.06 26.4, 101.52 20.17, 122.74 1.84 M91.26 35.93 C101.23 23.9, 112.4 11.07, 122.81 -0.68 M94.09 34.46 C104.39 28.02, 110.39 18.75, 126.5 1.81 M95.62 35.24 C104.48 26.52, 111.58 17.62, 127.79 0.65 M100.53 34.92 C112.84 23.31, 123.91 7.59, 130.87 -1.53 M102.4 36.01 C109.7 26.58, 116.07 18.87, 133.54 0.67 M106.56 37.48 C117.52 26.48, 126.73 13.62, 136.82 1.89 M107.25 35.16 C114.63 26.95, 122.73 15.98, 137.89 0.53 M112.05 33.43 C124.1 20.83, 135.6 9.72, 141.78 0.01 M113.21 35.96 C122.98 21.26, 135.73 8.62, 142.67 0.12 M117.09 36.95 C125.4 27.88, 132.21 18.2, 148.26 0.79 M117.61 34.95 C129.78 22.62, 140.68 9.54, 148.49 1.1 M121.09 35.18 C130.14 25.34, 139.23 14.95, 154.96 -1.75 M123.29 34.92 C133.24 24.89, 141.41 13.33, 154.12 -0.24 M127.4 34.4 C135.55 25.82, 146.02 13.51, 157.39 -1.3 M127.51 35.8 C134.73 28.68, 140.82 20.29, 159.23 0 M134.46 34.11 C143.28 27.21, 149.32 14.9, 163.04 -1.23 M133.16 35.64 C143.89 23.1, 154.77 10.76, 163.75 0.25 M140.38 37.18 C149.03 24.12, 159.16 10.84, 167.94 -0.4 M137.66 35.52 C148.06 24.28, 155.79 14.74, 168.66 0.42 M146.14 35.96 C151.75 28.87, 157.69 21.78, 175.85 0.96 M144.23 34.47 C154.12 23.6, 162.65 13.35, 175.3 -1.16 M148.12 34.42 C154.41 26.89, 162.98 20.6, 178.84 -0.68 M148.69 36.48 C160.12 21.79, 172.16 9.92, 180.21 -0.81 M153.32 34.28 C162.67 25.06, 173.08 16.23, 184.43 -1.97 M154.83 35.34 C161.26 26.82, 169.95 17.66, 186.42 -0.59 M159.89 37.1 C168.61 26.25, 178.26 13.77, 192.21 1.45 M159.13 35.66 C167.68 25.96, 175.74 18.09, 190.25 0.69 M163.7 35.19 C171.01 27.74, 181.65 16.46, 196.98 1.02 M165.52 36.52 C175.02 25.11, 184.08 15.27, 196.67 0.38 M170.15 33.98 C179.74 24.35, 188.78 14.96, 200.04 2.96 M171.41 34.65 C176.62 26.71, 184.36 19.75, 200.73 2.44 M174.16 34.38 C182.64 27.83, 191.51 15.22, 199.68 7.07 M175.77 35.63 C180.54 29.99, 187 24.13, 200.29 7.12 M182.55 35.65 C186.4 28.63, 191.91 20.91, 198.94 12.12 M181.86 35.6 C185.33 29.38, 191.15 25.82, 199.94 13.09 M186.77 37.58 C191.42 28.59, 196.57 24.97, 199.05 18.28 M185.96 36.15 C189.62 30.21, 195.28 26.73, 200.61 20.72 M190.65 34.91 C195.18 30.89, 198.23 27.59, 200.52 26.29 M191.14 35.37 C194.51 33.1, 196.01 30.39, 199.54 26.17 M196.41 36.3 C197.71 34.09, 199.55 32.84, 199.54 31.91 M196.56 35.99 C197.25 34.93, 198.43 34.28, 200.05 31.98" stroke="#40c057" stroke-width="0.5" fill="none"></path><path d="M1.85 0.22 C38.98 -2.49, 77.96 -0.85, 196.54 1.29 M0.11 0.08 C65.25 0.52, 129.26 1.4, 198.89 0.17 M196.4 1.12 C196.02 9.41, 196.44 14.62, 196.84 36.79 M197.81 -0.58 C198.36 9.65, 198.13 19.94, 197.09 35.23 M199.32 36.79 C137.29 35, 78.36 33.58, -0.42 36.68 M198.33 34.13 C119.84 33.9, 39.52 33.4, -0.24 34.88 M-0.64 36.84 C-0.63 26.19, 1.91 14.29, -1.47 1.46 M0.46 35.81 C0.09 26.05, 0.17 18.59, 0.69 0.87" stroke="#000000" stroke-width="1" fill="none"></path></g><g transform="translate(613.7860107421875 459.6854248046875) rotate(0 94 9.5)"><text x="94" y="15" font-family="Cascadia, Segoe UI Emoji" font-size="16px" fill="#000000" text-anchor="middle" style="white-space: pre;" direction="ltr">@HistogramAround</text></g><g stroke-linecap="round"><g transform="translate(514.7691650390625 286.08617014137826) rotate(0 186.9069199399604 1.030296538780533)"><path d="M0.66 -1.06 C62.88 -0.73, 311.96 2.33, 374.27 3.13 M-0.45 0.99 C61.52 1.45, 310.88 1.01, 373.25 1.15" stroke="#000000" stroke-width="1" fill="none"></path></g><g transform="translate(514.7691650390625 286.08617014137826) rotate(0 186.9069199399604 1.030296538780533)"><path d="M343.29 11.2 C356.07 7.53, 367.67 3.63, 373.08 0.6 M344.3 10.83 C353.4 7.81, 362.35 5.66, 372.86 0.15" stroke="#000000" stroke-width="1" fill="none"></path></g><g transform="translate(514.7691650390625 286.08617014137826) rotate(0 186.9069199399604 1.030296538780533)"><path d="M343.29 -9.32 C356.27 -5.25, 367.87 -1.41, 373.08 0.6 M344.3 -9.69 C353.21 -6.72, 362.16 -2.89, 372.86 0.15" stroke="#000000" stroke-width="1" fill="none"></path></g></g></svg>